<svg viewBox="0 0 842pt 595pt" xmlns="http://www.w3.org/2000/svg">
        <style>
        text{
            font-family: monospace;
            font-size: 7pt;
            fill: black;
            white-space: pre;
            z-index:1000;
        }
        .title{
            font-family: serif;
            font-weight: bold;
            font-size: 15pt;
            fill: black;
        }
        
        </style><rect x="0" y="0" width="842pt" height="595pt" fill="#DDDDDD" stroke="red"></rect><g transform="translate(30 40)"><text x="0" y="0" class="common">        </text><text x="75.60000000000001" y="0" class="common">01 (三)</text><text x="132.3" y="0" class="common">02 (四)</text><text x="189.0" y="0" class="common">03 (五)</text><text x="245.7" y="0" class="common">04 (六)</text><text x="302.4" y="0" class="common">05 (日)</text><text x="359.09999999999997" y="0" class="common">06 (一)</text><text x="415.79999999999995" y="0" class="common">07 (二)</text><text x="472.49999999999994" y="0" class="common">08 (三)</text><text x="529.1999999999999" y="0" class="common">09 (四)</text><text x="585.9" y="0" class="common">10 (五)</text><text x="642.6" y="0" class="common">11 (六)</text><text x="699.3000000000001" y="0" class="common">12 (日)</text><text x="756.0000000000001" y="0" class="common">13 (一)</text><text x="812.7000000000002" y="0" class="common">14 (二)</text><text x="869.4000000000002" y="0" class="common">15 (三)</text><text x="926.1000000000003" y="0" class="common">16 (四)</text><text x="0" y="11.200000000000001" class="common">农历</text><text x="75.60000000000001" y="11.200000000000001" class="common">腊月初七</text><text x="132.3" y="11.200000000000001" class="common">腊月初八</text><text x="189.0" y="11.200000000000001" class="common">腊月初九</text><text x="245.7" y="11.200000000000001" class="common">腊月初十</text><text x="302.4" y="11.200000000000001" class="common">腊月十一</text><text x="359.09999999999997" y="11.200000000000001" class="common">腊月十二</text><text x="415.79999999999995" y="11.200000000000001" class="common">腊月十三</text><text x="472.49999999999994" y="11.200000000000001" class="common">腊月十四</text><text x="529.1999999999999" y="11.200000000000001" class="common">腊月十五</text><text x="585.9" y="11.200000000000001" class="common">腊月十六</text><text x="642.6" y="11.200000000000001" class="common">腊月十七</text><text x="699.3000000000001" y="11.200000000000001" class="common">腊月十八</text><text x="756.0000000000001" y="11.200000000000001" class="common">腊月十九</text><text x="812.7000000000002" y="11.200000000000001" class="common">腊月二十</text><text x="869.4000000000002" y="11.200000000000001" class="common">腊月廿一</text><text x="926.1000000000003" y="11.200000000000001" class="common">腊月廿二</text><text x="0" y="22.400000000000002" class="common"> </text><text x="0" y="33.6" class="common">儒略日</text><text x="75.60000000000001" y="33.6" class="common">2458849.5</text><text x="132.3" y="33.6" class="common">2458850.5</text><text x="189.0" y="33.6" class="common">2458851.5</text><text x="245.7" y="33.6" class="common">2458852.5</text><text x="302.4" y="33.6" class="common">2458853.5</text><text x="359.09999999999997" y="33.6" class="common">2458854.5</text><text x="415.79999999999995" y="33.6" class="common">2458855.5</text><text x="472.49999999999994" y="33.6" class="common">2458856.5</text><text x="529.1999999999999" y="33.6" class="common">2458857.5</text><text x="585.9" y="33.6" class="common">2458858.5</text><text x="642.6" y="33.6" class="common">2458859.5</text><text x="699.3000000000001" y="33.6" class="common">2458860.5</text><text x="756.0000000000001" y="33.6" class="common">2458861.5</text><text x="812.7000000000002" y="33.6" class="common">2458862.5</text><text x="869.4000000000002" y="33.6" class="common">2458863.5</text><text x="926.1000000000003" y="33.6" class="common">2458864.5</text><text x="0" y="44.800000000000004" class="common">恒星时</text><text x="75.60000000000001" y="44.800000000000004" class="common">06h40m29s</text><text x="132.3" y="44.800000000000004" class="common">06h44m25s</text><text x="189.0" y="44.800000000000004" class="common">06h48m22s</text><text x="245.7" y="44.800000000000004" class="common">06h52m18s</text><text x="302.4" y="44.800000000000004" class="common">06h56m15s</text><text x="359.09999999999997" y="44.800000000000004" class="common">07h00m12s</text><text x="415.79999999999995" y="44.800000000000004" class="common">07h04m08s</text><text x="472.49999999999994" y="44.800000000000004" class="common">07h08m05s</text><text x="529.1999999999999" y="44.800000000000004" class="common">07h12m01s</text><text x="585.9" y="44.800000000000004" class="common">07h15m58s</text><text x="642.6" y="44.800000000000004" class="common">07h19m54s</text><text x="699.3000000000001" y="44.800000000000004" class="common">07h23m51s</text><text x="756.0000000000001" y="44.800000000000004" class="common">07h27m47s</text><text x="812.7000000000002" y="44.800000000000004" class="common">07h31m44s</text><text x="869.4000000000002" y="44.800000000000004" class="common">07h35m41s</text><text x="926.1000000000003" y="44.800000000000004" class="common">07h39m37s</text><text x="0" y="56.00000000000001" class="common">视赤经</text><text x="75.60000000000001" y="56.00000000000001" class="common">18h43m</text><text x="132.3" y="56.00000000000001" class="common">18h47m</text><text x="189.0" y="56.00000000000001" class="common">18h52m</text><text x="245.7" y="56.00000000000001" class="common">18h56m</text><text x="302.4" y="56.00000000000001" class="common">19h01m</text><text x="359.09999999999997" y="56.00000000000001" class="common">19h05m</text><text x="415.79999999999995" y="56.00000000000001" class="common">19h09m</text><text x="472.49999999999994" y="56.00000000000001" class="common">19h14m</text><text x="529.1999999999999" y="56.00000000000001" class="common">19h18m</text><text x="585.9" y="56.00000000000001" class="common">19h23m</text><text x="642.6" y="56.00000000000001" class="common">19h27m</text><text x="699.3000000000001" y="56.00000000000001" class="common">19h31m</text><text x="756.0000000000001" y="56.00000000000001" class="common">19h36m</text><text x="812.7000000000002" y="56.00000000000001" class="common">19h40m</text><text x="869.4000000000002" y="56.00000000000001" class="common">19h44m</text><text x="926.1000000000003" y="56.00000000000001" class="common">19h49m</text><text x="0" y="67.2" class="common">视赤纬</text><text x="75.60000000000001" y="67.2" class="common">-23°03'</text><text x="132.3" y="67.2" class="common">-22°58'</text><text x="189.0" y="67.2" class="common">-22°53'</text><text x="245.7" y="67.2" class="common">-22°47'</text><text x="302.4" y="67.2" class="common">-22°41'</text><text x="359.09999999999997" y="67.2" class="common">-22°34'</text><text x="415.79999999999995" y="67.2" class="common">-22°27'</text><text x="472.49999999999994" y="67.2" class="common">-22°20'</text><text x="529.1999999999999" y="67.2" class="common">-22°12'</text><text x="585.9" y="67.2" class="common">-22°03'</text><text x="642.6" y="67.2" class="common">-21°55'</text><text x="699.3000000000001" y="67.2" class="common">-21°45'</text><text x="756.0000000000001" y="67.2" class="common">-21°36'</text><text x="812.7000000000002" y="67.2" class="common">-21°25'</text><text x="869.4000000000002" y="67.2" class="common">-21°15'</text><text x="926.1000000000003" y="67.2" class="common">-21°04'</text><text x="0" y="78.4" class="common">视黄经</text><text x="75.60000000000001" y="78.4" class="common">-23°03'</text><text x="132.3" y="78.4" class="common">-22°58'</text><text x="189.0" y="78.4" class="common">-22°53'</text><text x="245.7" y="78.4" class="common">-22°47'</text><text x="302.4" y="78.4" class="common">-22°41'</text><text x="359.09999999999997" y="78.4" class="common">-22°34'</text><text x="415.79999999999995" y="78.4" class="common">-22°27'</text><text x="472.49999999999994" y="78.4" class="common">-22°20'</text><text x="529.1999999999999" y="78.4" class="common">-22°12'</text><text x="585.9" y="78.4" class="common">-22°03'</text><text x="642.6" y="78.4" class="common">-21°55'</text><text x="699.3000000000001" y="78.4" class="common">-21°45'</text><text x="756.0000000000001" y="78.4" class="common">-21°36'</text><text x="812.7000000000002" y="78.4" class="common">-21°25'</text><text x="869.4000000000002" y="78.4" class="common">-21°15'</text><text x="926.1000000000003" y="78.4" class="common">-21°04'</text><text x="0" y="89.60000000000001" class="common">均时差</text><text x="75.60000000000001" y="89.60000000000001" class="common">-3m03s</text><text x="132.3" y="89.60000000000001" class="common">-3m32s</text><text x="189.0" y="89.60000000000001" class="common">-4m00s</text><text x="245.7" y="89.60000000000001" class="common">-4m28s</text><text x="302.4" y="89.60000000000001" class="common">-4m55s</text><text x="359.09999999999997" y="89.60000000000001" class="common">-5m22s</text><text x="415.79999999999995" y="89.60000000000001" class="common">-5m48s</text><text x="472.49999999999994" y="89.60000000000001" class="common">-6m14s</text><text x="529.1999999999999" y="89.60000000000001" class="common">-6m40s</text><text x="585.9" y="89.60000000000001" class="common">-7m05s</text><text x="642.6" y="89.60000000000001" class="common">-7m29s</text><text x="699.3000000000001" y="89.60000000000001" class="common">-7m53s</text><text x="756.0000000000001" y="89.60000000000001" class="common">-8m16s</text><text x="812.7000000000002" y="89.60000000000001" class="common">-8m39s</text><text x="869.4000000000002" y="89.60000000000001" class="common">-9m01s</text><text x="926.1000000000003" y="89.60000000000001" class="common">-9m22s</text><text x="0" y="100.80000000000001" class="common"> </text><text x="0" y="112.00000000000001" class="common">20N 月出</text><text x="75.60000000000001" y="112.00000000000001" class="common">11:11</text><text x="132.3" y="112.00000000000001" class="common">11:45</text><text x="189.0" y="112.00000000000001" class="common">12:18</text><text x="245.7" y="112.00000000000001" class="common">12:53</text><text x="302.4" y="112.00000000000001" class="common">13:29</text><text x="359.09999999999997" y="112.00000000000001" class="common">14:08</text><text x="415.79999999999995" y="112.00000000000001" class="common">14:51</text><text x="472.49999999999994" y="112.00000000000001" class="common">15:40</text><text x="529.1999999999999" y="112.00000000000001" class="common">16:34</text><text x="585.9" y="112.00000000000001" class="common">17:33</text><text x="642.6" y="112.00000000000001" class="common">18:36</text><text x="699.3000000000001" y="112.00000000000001" class="common">19:39</text><text x="756.0000000000001" y="112.00000000000001" class="common">20:43</text><text x="812.7000000000002" y="112.00000000000001" class="common">21:44</text><text x="869.4000000000002" y="112.00000000000001" class="common">22:44</text><text x="926.1000000000003" y="112.00000000000001" class="common">23:43</text><text x="0" y="123.20000000000002" class="common">    月落</text><text x="75.60000000000001" y="123.20000000000002" class="common">23:02</text><text x="132.3" y="123.20000000000002" class="common">23:50</text><text x="189.0" y="123.20000000000002" class="common">---</text><text x="245.7" y="123.20000000000002" class="common">00:38</text><text x="302.4" y="123.20000000000002" class="common">01:27</text><text x="359.09999999999997" y="123.20000000000002" class="common">02:18</text><text x="415.79999999999995" y="123.20000000000002" class="common">03:12</text><text x="472.49999999999994" y="123.20000000000002" class="common">04:09</text><text x="529.1999999999999" y="123.20000000000002" class="common">05:07</text><text x="585.9" y="123.20000000000002" class="common">06:07</text><text x="642.6" y="123.20000000000002" class="common">07:05</text><text x="699.3000000000001" y="123.20000000000002" class="common">08:00</text><text x="756.0000000000001" y="123.20000000000002" class="common">08:51</text><text x="812.7000000000002" y="123.20000000000002" class="common">09:38</text><text x="869.4000000000002" y="123.20000000000002" class="common">10:22</text><text x="926.1000000000003" y="123.20000000000002" class="common">11:04</text><text x="0" y="134.4" class="common">30N 月出</text><text x="75.60000000000001" y="134.4" class="common">11:18</text><text x="132.3" y="134.4" class="common">11:48</text><text x="189.0" y="134.4" class="common">12:17</text><text x="245.7" y="134.4" class="common">12:48</text><text x="302.4" y="134.4" class="common">13:20</text><text x="359.09999999999997" y="134.4" class="common">13:55</text><text x="415.79999999999995" y="134.4" class="common">14:35</text><text x="472.49999999999994" y="134.4" class="common">15:20</text><text x="529.1999999999999" y="134.4" class="common">16:12</text><text x="585.9" y="134.4" class="common">17:11</text><text x="642.6" y="134.4" class="common">18:16</text><text x="699.3000000000001" y="134.4" class="common">19:23</text><text x="756.0000000000001" y="134.4" class="common">20:30</text><text x="812.7000000000002" y="134.4" class="common">21:37</text><text x="869.4000000000002" y="134.4" class="common">22:42</text><text x="926.1000000000003" y="134.4" class="common">23:46</text><text x="0" y="145.6" class="common">    月落</text><text x="75.60000000000001" y="145.6" class="common">22:56</text><text x="132.3" y="145.6" class="common">23:49</text><text x="189.0" y="145.6" class="common">---</text><text x="245.7" y="145.6" class="common">00:41</text><text x="302.4" y="145.6" class="common">01:35</text><text x="359.09999999999997" y="145.6" class="common">02:30</text><text x="415.79999999999995" y="145.6" class="common">03:28</text><text x="472.49999999999994" y="145.6" class="common">04:27</text><text x="529.1999999999999" y="145.6" class="common">05:28</text><text x="585.9" y="145.6" class="common">06:29</text><text x="642.6" y="145.6" class="common">07:26</text><text x="699.3000000000001" y="145.6" class="common">08:18</text><text x="756.0000000000001" y="145.6" class="common">09:06</text><text x="812.7000000000002" y="145.6" class="common">09:48</text><text x="869.4000000000002" y="145.6" class="common">10:27</text><text x="926.1000000000003" y="145.6" class="common">11:04</text><text x="0" y="156.79999999999998" class="common">35N 月出</text><text x="75.60000000000001" y="156.79999999999998" class="common">11:22</text><text x="132.3" y="156.79999999999998" class="common">11:50</text><text x="189.0" y="156.79999999999998" class="common">12:17</text><text x="245.7" y="156.79999999999998" class="common">12:45</text><text x="302.4" y="156.79999999999998" class="common">13:14</text><text x="359.09999999999997" y="156.79999999999998" class="common">13:47</text><text x="415.79999999999995" y="156.79999999999998" class="common">14:25</text><text x="472.49999999999994" y="156.79999999999998" class="common">15:09</text><text x="529.1999999999999" y="156.79999999999998" class="common">16:00</text><text x="585.9" y="156.79999999999998" class="common">16:59</text><text x="642.6" y="156.79999999999998" class="common">18:04</text><text x="699.3000000000001" y="156.79999999999998" class="common">19:13</text><text x="756.0000000000001" y="156.79999999999998" class="common">20:23</text><text x="812.7000000000002" y="156.79999999999998" class="common">21:32</text><text x="869.4000000000002" y="156.79999999999998" class="common">22:41</text><text x="926.1000000000003" y="156.79999999999998" class="common">23:48</text><text x="0" y="167.99999999999997" class="common">    月落</text><text x="75.60000000000001" y="167.99999999999997" class="common">22:53</text><text x="132.3" y="167.99999999999997" class="common">23:48</text><text x="189.0" y="167.99999999999997" class="common">---</text><text x="245.7" y="167.99999999999997" class="common">00:43</text><text x="302.4" y="167.99999999999997" class="common">01:39</text><text x="359.09999999999997" y="167.99999999999997" class="common">02:37</text><text x="415.79999999999995" y="167.99999999999997" class="common">03:36</text><text x="472.49999999999994" y="167.99999999999997" class="common">04:38</text><text x="529.1999999999999" y="167.99999999999997" class="common">05:40</text><text x="585.9" y="167.99999999999997" class="common">06:41</text><text x="642.6" y="167.99999999999997" class="common">07:38</text><text x="699.3000000000001" y="167.99999999999997" class="common">08:29</text><text x="756.0000000000001" y="167.99999999999997" class="common">09:14</text><text x="812.7000000000002" y="167.99999999999997" class="common">09:54</text><text x="869.4000000000002" y="167.99999999999997" class="common">10:30</text><text x="926.1000000000003" y="167.99999999999997" class="common">11:04</text><text x="0" y="179.19999999999996" class="common">40N 月出</text><text x="75.60000000000001" y="179.19999999999996" class="common">11:27</text><text x="132.3" y="179.19999999999996" class="common">11:52</text><text x="189.0" y="179.19999999999996" class="common">12:16</text><text x="245.7" y="179.19999999999996" class="common">12:42</text><text x="302.4" y="179.19999999999996" class="common">13:08</text><text x="359.09999999999997" y="179.19999999999996" class="common">13:39</text><text x="415.79999999999995" y="179.19999999999996" class="common">14:14</text><text x="472.49999999999994" y="179.19999999999996" class="common">14:56</text><text x="529.1999999999999" y="179.19999999999996" class="common">15:46</text><text x="585.9" y="179.19999999999996" class="common">16:44</text><text x="642.6" y="179.19999999999996" class="common">17:51</text><text x="699.3000000000001" y="179.19999999999996" class="common">19:02</text><text x="756.0000000000001" y="179.19999999999996" class="common">20:15</text><text x="812.7000000000002" y="179.19999999999996" class="common">21:28</text><text x="869.4000000000002" y="179.19999999999996" class="common">22:39</text><text x="926.1000000000003" y="179.19999999999996" class="common">23:50</text><text x="0" y="190.39999999999995" class="common">    月落</text><text x="75.60000000000001" y="190.39999999999995" class="common">22:49</text><text x="132.3" y="190.39999999999995" class="common">23:47</text><text x="189.0" y="190.39999999999995" class="common">---</text><text x="245.7" y="190.39999999999995" class="common">00:45</text><text x="302.4" y="190.39999999999995" class="common">01:43</text><text x="359.09999999999997" y="190.39999999999995" class="common">02:44</text><text x="415.79999999999995" y="190.39999999999995" class="common">03:47</text><text x="472.49999999999994" y="190.39999999999995" class="common">04:51</text><text x="529.1999999999999" y="190.39999999999995" class="common">05:54</text><text x="585.9" y="190.39999999999995" class="common">06:56</text><text x="642.6" y="190.39999999999995" class="common">07:52</text><text x="699.3000000000001" y="190.39999999999995" class="common">08:41</text><text x="756.0000000000001" y="190.39999999999995" class="common">09:23</text><text x="812.7000000000002" y="190.39999999999995" class="common">10:00</text><text x="869.4000000000002" y="190.39999999999995" class="common">10:33</text><text x="926.1000000000003" y="190.39999999999995" class="common">11:04</text><text x="0" y="201.59999999999994" class="common">45N 月出</text><text x="75.60000000000001" y="201.59999999999994" class="common">11:33</text><text x="132.3" y="201.59999999999994" class="common">11:55</text><text x="189.0" y="201.59999999999994" class="common">12:16</text><text x="245.7" y="201.59999999999994" class="common">12:38</text><text x="302.4" y="201.59999999999994" class="common">13:02</text><text x="359.09999999999997" y="201.59999999999994" class="common">13:29</text><text x="415.79999999999995" y="201.59999999999994" class="common">14:01</text><text x="472.49999999999994" y="201.59999999999994" class="common">14:40</text><text x="529.1999999999999" y="201.59999999999994" class="common">15:29</text><text x="585.9" y="201.59999999999994" class="common">16:27</text><text x="642.6" y="201.59999999999994" class="common">17:35</text><text x="699.3000000000001" y="201.59999999999994" class="common">18:49</text><text x="756.0000000000001" y="201.59999999999994" class="common">20:05</text><text x="812.7000000000002" y="201.59999999999994" class="common">21:22</text><text x="869.4000000000002" y="201.59999999999994" class="common">22:37</text><text x="926.1000000000003" y="201.59999999999994" class="common">23:52</text><text x="0" y="212.79999999999993" class="common">    月落</text><text x="75.60000000000001" y="212.79999999999993" class="common">22:45</text><text x="132.3" y="212.79999999999993" class="common">23:46</text><text x="189.0" y="212.79999999999993" class="common">---</text><text x="245.7" y="212.79999999999993" class="common">00:47</text><text x="302.4" y="212.79999999999993" class="common">01:49</text><text x="359.09999999999997" y="212.79999999999993" class="common">02:53</text><text x="415.79999999999995" y="212.79999999999993" class="common">03:58</text><text x="472.49999999999994" y="212.79999999999993" class="common">05:05</text><text x="529.1999999999999" y="212.79999999999993" class="common">06:11</text><text x="585.9" y="212.79999999999993" class="common">07:13</text><text x="642.6" y="212.79999999999993" class="common">08:08</text><text x="699.3000000000001" y="212.79999999999993" class="common">08:55</text><text x="756.0000000000001" y="212.79999999999993" class="common">09:34</text><text x="812.7000000000002" y="212.79999999999993" class="common">10:07</text><text x="869.4000000000002" y="212.79999999999993" class="common">10:36</text><text x="926.1000000000003" y="212.79999999999993" class="common">11:03</text><text x="0" y="223.99999999999991" class="common">50N 月出</text><text x="75.60000000000001" y="223.99999999999991" class="common">11:40</text><text x="132.3" y="223.99999999999991" class="common">11:58</text><text x="189.0" y="223.99999999999991" class="common">12:15</text><text x="245.7" y="223.99999999999991" class="common">12:34</text><text x="302.4" y="223.99999999999991" class="common">12:54</text><text x="359.09999999999997" y="223.99999999999991" class="common">13:17</text><text x="415.79999999999995" y="223.99999999999991" class="common">13:46</text><text x="472.49999999999994" y="223.99999999999991" class="common">14:22</text><text x="529.1999999999999" y="223.99999999999991" class="common">15:08</text><text x="585.9" y="223.99999999999991" class="common">16:06</text><text x="642.6" y="223.99999999999991" class="common">17:16</text><text x="699.3000000000001" y="223.99999999999991" class="common">18:33</text><text x="756.0000000000001" y="223.99999999999991" class="common">19:54</text><text x="812.7000000000002" y="223.99999999999991" class="common">21:15</text><text x="869.4000000000002" y="223.99999999999991" class="common">22:36</text><text x="926.1000000000003" y="223.99999999999991" class="common">23:55</text><text x="0" y="235.1999999999999" class="common">    月落</text><text x="75.60000000000001" y="235.1999999999999" class="common">22:40</text><text x="132.3" y="235.1999999999999" class="common">23:44</text><text x="189.0" y="235.1999999999999" class="common">---</text><text x="245.7" y="235.1999999999999" class="common">00:49</text><text x="302.4" y="235.1999999999999" class="common">01:55</text><text x="359.09999999999997" y="235.1999999999999" class="common">03:03</text><text x="415.79999999999995" y="235.1999999999999" class="common">04:13</text><text x="472.49999999999994" y="235.1999999999999" class="common">05:23</text><text x="529.1999999999999" y="235.1999999999999" class="common">06:31</text><text x="585.9" y="235.1999999999999" class="common">07:34</text><text x="642.6" y="235.1999999999999" class="common">08:28</text><text x="699.3000000000001" y="235.1999999999999" class="common">09:11</text><text x="756.0000000000001" y="235.1999999999999" class="common">09:47</text><text x="812.7000000000002" y="235.1999999999999" class="common">10:16</text><text x="869.4000000000002" y="235.1999999999999" class="common">10:40</text><text x="926.1000000000003" y="235.1999999999999" class="common">11:03</text></g><g transform="translate(30 350)"><text x="0" y="0" class="common">        </text><text x="75.60000000000001" y="0" class="common">17 (五)</text><text x="132.3" y="0" class="common">18 (六)</text><text x="189.0" y="0" class="common">19 (日)</text><text x="245.7" y="0" class="common">20 (一)</text><text x="302.4" y="0" class="common">21 (二)</text><text x="359.09999999999997" y="0" class="common">22 (三)</text><text x="415.79999999999995" y="0" class="common">23 (四)</text><text x="472.49999999999994" y="0" class="common">24 (五)</text><text x="529.1999999999999" y="0" class="common">25 (六)</text><text x="585.9" y="0" class="common">26 (日)</text><text x="642.6" y="0" class="common">27 (一)</text><text x="699.3000000000001" y="0" class="common">28 (二)</text><text x="756.0000000000001" y="0" class="common">29 (三)</text><text x="812.7000000000002" y="0" class="common">30 (四)</text><text x="869.4000000000002" y="0" class="common">31 (五)</text><text x="0" y="11.200000000000001" class="common">农历</text><text x="75.60000000000001" y="11.200000000000001" class="common">腊月廿三</text><text x="132.3" y="11.200000000000001" class="common">腊月廿四</text><text x="189.0" y="11.200000000000001" class="common">腊月廿五</text><text x="245.7" y="11.200000000000001" class="common">腊月廿六</text><text x="302.4" y="11.200000000000001" class="common">腊月廿七</text><text x="359.09999999999997" y="11.200000000000001" class="common">腊月廿八</text><text x="415.79999999999995" y="11.200000000000001" class="common">腊月廿九</text><text x="472.49999999999994" y="11.200000000000001" class="common">腊月三十</text><text x="529.1999999999999" y="11.200000000000001" class="common">正月初一</text><text x="585.9" y="11.200000000000001" class="common">正月初二</text><text x="642.6" y="11.200000000000001" class="common">正月初三</text><text x="699.3000000000001" y="11.200000000000001" class="common">正月初四</text><text x="756.0000000000001" y="11.200000000000001" class="common">正月初五</text><text x="812.7000000000002" y="11.200000000000001" class="common">正月初六</text><text x="869.4000000000002" y="11.200000000000001" class="common">正月初七</text><text x="0" y="22.400000000000002" class="common"> </text><text x="0" y="33.6" class="common">儒略日</text><text x="75.60000000000001" y="33.6" class="common">2458865.5</text><text x="132.3" y="33.6" class="common">2458866.5</text><text x="189.0" y="33.6" class="common">2458867.5</text><text x="245.7" y="33.6" class="common">2458868.5</text><text x="302.4" y="33.6" class="common">2458869.5</text><text x="359.09999999999997" y="33.6" class="common">2458870.5</text><text x="415.79999999999995" y="33.6" class="common">2458871.5</text><text x="472.49999999999994" y="33.6" class="common">2458872.5</text><text x="529.1999999999999" y="33.6" class="common">2458873.5</text><text x="585.9" y="33.6" class="common">2458874.5</text><text x="642.6" y="33.6" class="common">2458875.5</text><text x="699.3000000000001" y="33.6" class="common">2458876.5</text><text x="756.0000000000001" y="33.6" class="common">2458877.5</text><text x="812.7000000000002" y="33.6" class="common">2458878.5</text><text x="869.4000000000002" y="33.6" class="common">2458879.5</text><text x="0" y="44.800000000000004" class="common">恒星时</text><text x="75.60000000000001" y="44.800000000000004" class="common">07h43m34s</text><text x="132.3" y="44.800000000000004" class="common">07h47m30s</text><text x="189.0" y="44.800000000000004" class="common">07h51m27s</text><text x="245.7" y="44.800000000000004" class="common">07h55m23s</text><text x="302.4" y="44.800000000000004" class="common">07h59m20s</text><text x="359.09999999999997" y="44.800000000000004" class="common">08h03m16s</text><text x="415.79999999999995" y="44.800000000000004" class="common">08h07m13s</text><text x="472.49999999999994" y="44.800000000000004" class="common">08h11m10s</text><text x="529.1999999999999" y="44.800000000000004" class="common">08h15m06s</text><text x="585.9" y="44.800000000000004" class="common">08h19m03s</text><text x="642.6" y="44.800000000000004" class="common">08h22m59s</text><text x="699.3000000000001" y="44.800000000000004" class="common">08h26m56s</text><text x="756.0000000000001" y="44.800000000000004" class="common">08h30m52s</text><text x="812.7000000000002" y="44.800000000000004" class="common">08h34m49s</text><text x="869.4000000000002" y="44.800000000000004" class="common">08h38m45s</text><text x="0" y="56.00000000000001" class="common">视赤经</text><text x="75.60000000000001" y="56.00000000000001" class="common">19h53m</text><text x="132.3" y="56.00000000000001" class="common">19h57m</text><text x="189.0" y="56.00000000000001" class="common">20h01m</text><text x="245.7" y="56.00000000000001" class="common">20h06m</text><text x="302.4" y="56.00000000000001" class="common">20h10m</text><text x="359.09999999999997" y="56.00000000000001" class="common">20h14m</text><text x="415.79999999999995" y="56.00000000000001" class="common">20h18m</text><text x="472.49999999999994" y="56.00000000000001" class="common">20h22m</text><text x="529.1999999999999" y="56.00000000000001" class="common">20h27m</text><text x="585.9" y="56.00000000000001" class="common">20h31m</text><text x="642.6" y="56.00000000000001" class="common">20h35m</text><text x="699.3000000000001" y="56.00000000000001" class="common">20h39m</text><text x="756.0000000000001" y="56.00000000000001" class="common">20h43m</text><text x="812.7000000000002" y="56.00000000000001" class="common">20h47m</text><text x="869.4000000000002" y="56.00000000000001" class="common">20h52m</text><text x="0" y="67.2" class="common">视赤纬</text><text x="75.60000000000001" y="67.2" class="common">-20°53'</text><text x="132.3" y="67.2" class="common">-20°41'</text><text x="189.0" y="67.2" class="common">-20°29'</text><text x="245.7" y="67.2" class="common">-20°16'</text><text x="302.4" y="67.2" class="common">-20°03'</text><text x="359.09999999999997" y="67.2" class="common">-19°50'</text><text x="415.79999999999995" y="67.2" class="common">-19°37'</text><text x="472.49999999999994" y="67.2" class="common">-19°23'</text><text x="529.1999999999999" y="67.2" class="common">-19°08'</text><text x="585.9" y="67.2" class="common">-18°53'</text><text x="642.6" y="67.2" class="common">-18°38'</text><text x="699.3000000000001" y="67.2" class="common">-18°23'</text><text x="756.0000000000001" y="67.2" class="common">-18°07'</text><text x="812.7000000000002" y="67.2" class="common">-17°51'</text><text x="869.4000000000002" y="67.2" class="common">-17°35'</text><text x="0" y="78.4" class="common">视黄经</text><text x="75.60000000000001" y="78.4" class="common">-20°53'</text><text x="132.3" y="78.4" class="common">-20°41'</text><text x="189.0" y="78.4" class="common">-20°29'</text><text x="245.7" y="78.4" class="common">-20°16'</text><text x="302.4" y="78.4" class="common">-20°03'</text><text x="359.09999999999997" y="78.4" class="common">-19°50'</text><text x="415.79999999999995" y="78.4" class="common">-19°37'</text><text x="472.49999999999994" y="78.4" class="common">-19°23'</text><text x="529.1999999999999" y="78.4" class="common">-19°08'</text><text x="585.9" y="78.4" class="common">-18°53'</text><text x="642.6" y="78.4" class="common">-18°38'</text><text x="699.3000000000001" y="78.4" class="common">-18°23'</text><text x="756.0000000000001" y="78.4" class="common">-18°07'</text><text x="812.7000000000002" y="78.4" class="common">-17°51'</text><text x="869.4000000000002" y="78.4" class="common">-17°35'</text><text x="0" y="89.60000000000001" class="common">均时差</text><text x="75.60000000000001" y="89.60000000000001" class="common">-9m43s</text><text x="132.3" y="89.60000000000001" class="common">-10m03s</text><text x="189.0" y="89.60000000000001" class="common">-10m22s</text><text x="245.7" y="89.60000000000001" class="common">-10m41s</text><text x="302.4" y="89.60000000000001" class="common">-10m59s</text><text x="359.09999999999997" y="89.60000000000001" class="common">-11m16s</text><text x="415.79999999999995" y="89.60000000000001" class="common">-11m32s</text><text x="472.49999999999994" y="89.60000000000001" class="common">-11m48s</text><text x="529.1999999999999" y="89.60000000000001" class="common">-12m03s</text><text x="585.9" y="89.60000000000001" class="common">-12m17s</text><text x="642.6" y="89.60000000000001" class="common">-12m30s</text><text x="699.3000000000001" y="89.60000000000001" class="common">-12m43s</text><text x="756.0000000000001" y="89.60000000000001" class="common">-12m54s</text><text x="812.7000000000002" y="89.60000000000001" class="common">-13m05s</text><text x="869.4000000000002" y="89.60000000000001" class="common">-13m15s</text><text x="0" y="100.80000000000001" class="common"> </text><text x="0" y="112.00000000000001" class="common">20N 月出</text><text x="75.60000000000001" y="112.00000000000001" class="common">---</text><text x="132.3" y="112.00000000000001" class="common">00:41</text><text x="189.0" y="112.00000000000001" class="common">01:40</text><text x="245.7" y="112.00000000000001" class="common">02:38</text><text x="302.4" y="112.00000000000001" class="common">03:37</text><text x="359.09999999999997" y="112.00000000000001" class="common">04:34</text><text x="415.79999999999995" y="112.00000000000001" class="common">05:30</text><text x="472.49999999999994" y="112.00000000000001" class="common">06:22</text><text x="529.1999999999999" y="112.00000000000001" class="common">07:09</text><text x="585.9" y="112.00000000000001" class="common">07:52</text><text x="642.6" y="112.00000000000001" class="common">08:32</text><text x="699.3000000000001" y="112.00000000000001" class="common">09:09</text><text x="756.0000000000001" y="112.00000000000001" class="common">09:43</text><text x="812.7000000000002" y="112.00000000000001" class="common">10:17</text><text x="869.4000000000002" y="112.00000000000001" class="common">10:50</text><text x="0" y="123.20000000000002" class="common">    月落</text><text x="75.60000000000001" y="123.20000000000002" class="common">11:46</text><text x="132.3" y="123.20000000000002" class="common">12:27</text><text x="189.0" y="123.20000000000002" class="common">13:11</text><text x="245.7" y="123.20000000000002" class="common">13:57</text><text x="302.4" y="123.20000000000002" class="common">14:46</text><text x="359.09999999999997" y="123.20000000000002" class="common">15:38</text><text x="415.79999999999995" y="123.20000000000002" class="common">16:32</text><text x="472.49999999999994" y="123.20000000000002" class="common">17:27</text><text x="529.1999999999999" y="123.20000000000002" class="common">18:21</text><text x="585.9" y="123.20000000000002" class="common">19:14</text><text x="642.6" y="123.20000000000002" class="common">20:05</text><text x="699.3000000000001" y="123.20000000000002" class="common">20:55</text><text x="756.0000000000001" y="123.20000000000002" class="common">21:43</text><text x="812.7000000000002" y="123.20000000000002" class="common">22:31</text><text x="869.4000000000002" y="123.20000000000002" class="common">23:19</text><text x="0" y="134.4" class="common">30N 月出</text><text x="75.60000000000001" y="134.4" class="common">---</text><text x="132.3" y="134.4" class="common">00:49</text><text x="189.0" y="134.4" class="common">01:52</text><text x="245.7" y="134.4" class="common">02:55</text><text x="302.4" y="134.4" class="common">03:57</text><text x="359.09999999999997" y="134.4" class="common">04:57</text><text x="415.79999999999995" y="134.4" class="common">05:53</text><text x="472.49999999999994" y="134.4" class="common">06:43</text><text x="529.1999999999999" y="134.4" class="common">07:29</text><text x="585.9" y="134.4" class="common">08:09</text><text x="642.6" y="134.4" class="common">08:45</text><text x="699.3000000000001" y="134.4" class="common">09:18</text><text x="756.0000000000001" y="134.4" class="common">09:48</text><text x="812.7000000000002" y="134.4" class="common">10:17</text><text x="869.4000000000002" y="134.4" class="common">10:47</text><text x="0" y="145.6" class="common">    月落</text><text x="75.60000000000001" y="145.6" class="common">11:40</text><text x="132.3" y="145.6" class="common">12:17</text><text x="189.0" y="145.6" class="common">12:56</text><text x="245.7" y="145.6" class="common">13:39</text><text x="302.4" y="145.6" class="common">14:25</text><text x="359.09999999999997" y="145.6" class="common">15:15</text><text x="415.79999999999995" y="145.6" class="common">16:10</text><text x="472.49999999999994" y="145.6" class="common">17:06</text><text x="529.1999999999999" y="145.6" class="common">18:03</text><text x="585.9" y="145.6" class="common">18:59</text><text x="642.6" y="145.6" class="common">19:54</text><text x="699.3000000000001" y="145.6" class="common">20:48</text><text x="756.0000000000001" y="145.6" class="common">21:40</text><text x="812.7000000000002" y="145.6" class="common">22:32</text><text x="869.4000000000002" y="145.6" class="common">23:24</text><text x="0" y="156.79999999999998" class="common">35N 月出</text><text x="75.60000000000001" y="156.79999999999998" class="common">---</text><text x="132.3" y="156.79999999999998" class="common">00:54</text><text x="189.0" y="156.79999999999998" class="common">02:00</text><text x="245.7" y="156.79999999999998" class="common">03:05</text><text x="302.4" y="156.79999999999998" class="common">04:09</text><text x="359.09999999999997" y="156.79999999999998" class="common">05:10</text><text x="415.79999999999995" y="156.79999999999998" class="common">06:06</text><text x="472.49999999999994" y="156.79999999999998" class="common">06:56</text><text x="529.1999999999999" y="156.79999999999998" class="common">07:40</text><text x="585.9" y="156.79999999999998" class="common">08:19</text><text x="642.6" y="156.79999999999998" class="common">08:52</text><text x="699.3000000000001" y="156.79999999999998" class="common">09:23</text><text x="756.0000000000001" y="156.79999999999998" class="common">09:51</text><text x="812.7000000000002" y="156.79999999999998" class="common">10:18</text><text x="869.4000000000002" y="156.79999999999998" class="common">10:45</text><text x="0" y="167.99999999999997" class="common">    月落</text><text x="75.60000000000001" y="167.99999999999997" class="common">11:37</text><text x="132.3" y="167.99999999999997" class="common">12:12</text><text x="189.0" y="167.99999999999997" class="common">12:48</text><text x="245.7" y="167.99999999999997" class="common">13:28</text><text x="302.4" y="167.99999999999997" class="common">14:13</text><text x="359.09999999999997" y="167.99999999999997" class="common">15:02</text><text x="415.79999999999995" y="167.99999999999997" class="common">15:56</text><text x="472.49999999999994" y="167.99999999999997" class="common">16:53</text><text x="529.1999999999999" y="167.99999999999997" class="common">17:52</text><text x="585.9" y="167.99999999999997" class="common">18:50</text><text x="642.6" y="167.99999999999997" class="common">19:47</text><text x="699.3000000000001" y="167.99999999999997" class="common">20:43</text><text x="756.0000000000001" y="167.99999999999997" class="common">21:38</text><text x="812.7000000000002" y="167.99999999999997" class="common">22:33</text><text x="869.4000000000002" y="167.99999999999997" class="common">23:28</text><text x="0" y="179.19999999999996" class="common">40N 月出</text><text x="75.60000000000001" y="179.19999999999996" class="common">---</text><text x="132.3" y="179.19999999999996" class="common">00:59</text><text x="189.0" y="179.19999999999996" class="common">02:08</text><text x="245.7" y="179.19999999999996" class="common">03:16</text><text x="302.4" y="179.19999999999996" class="common">04:23</text><text x="359.09999999999997" y="179.19999999999996" class="common">05:25</text><text x="415.79999999999995" y="179.19999999999996" class="common">06:22</text><text x="472.49999999999994" y="179.19999999999996" class="common">07:11</text><text x="529.1999999999999" y="179.19999999999996" class="common">07:54</text><text x="585.9" y="179.19999999999996" class="common">08:30</text><text x="642.6" y="179.19999999999996" class="common">09:01</text><text x="699.3000000000001" y="179.19999999999996" class="common">09:29</text><text x="756.0000000000001" y="179.19999999999996" class="common">09:54</text><text x="812.7000000000002" y="179.19999999999996" class="common">10:18</text><text x="869.4000000000002" y="179.19999999999996" class="common">10:43</text><text x="0" y="190.39999999999995" class="common">    月落</text><text x="75.60000000000001" y="190.39999999999995" class="common">11:34</text><text x="132.3" y="190.39999999999995" class="common">12:05</text><text x="189.0" y="190.39999999999995" class="common">12:38</text><text x="245.7" y="190.39999999999995" class="common">13:16</text><text x="302.4" y="190.39999999999995" class="common">13:58</text><text x="359.09999999999997" y="190.39999999999995" class="common">14:47</text><text x="415.79999999999995" y="190.39999999999995" class="common">15:41</text><text x="472.49999999999994" y="190.39999999999995" class="common">16:39</text><text x="529.1999999999999" y="190.39999999999995" class="common">17:39</text><text x="585.9" y="190.39999999999995" class="common">18:40</text><text x="642.6" y="190.39999999999995" class="common">19:40</text><text x="699.3000000000001" y="190.39999999999995" class="common">20:39</text><text x="756.0000000000001" y="190.39999999999995" class="common">21:36</text><text x="812.7000000000002" y="190.39999999999995" class="common">22:34</text><text x="869.4000000000002" y="190.39999999999995" class="common">23:31</text><text x="0" y="201.59999999999994" class="common">45N 月出</text><text x="75.60000000000001" y="201.59999999999994" class="common">---</text><text x="132.3" y="201.59999999999994" class="common">01:05</text><text x="189.0" y="201.59999999999994" class="common">02:18</text><text x="245.7" y="201.59999999999994" class="common">03:30</text><text x="302.4" y="201.59999999999994" class="common">04:39</text><text x="359.09999999999997" y="201.59999999999994" class="common">05:43</text><text x="415.79999999999995" y="201.59999999999994" class="common">06:40</text><text x="472.49999999999994" y="201.59999999999994" class="common">07:29</text><text x="529.1999999999999" y="201.59999999999994" class="common">08:09</text><text x="585.9" y="201.59999999999994" class="common">08:43</text><text x="642.6" y="201.59999999999994" class="common">09:11</text><text x="699.3000000000001" y="201.59999999999994" class="common">09:36</text><text x="756.0000000000001" y="201.59999999999994" class="common">09:58</text><text x="812.7000000000002" y="201.59999999999994" class="common">10:19</text><text x="869.4000000000002" y="201.59999999999994" class="common">10:40</text><text x="0" y="212.79999999999993" class="common">    月落</text><text x="75.60000000000001" y="212.79999999999993" class="common">11:30</text><text x="132.3" y="212.79999999999993" class="common">11:57</text><text x="189.0" y="212.79999999999993" class="common">12:27</text><text x="245.7" y="212.79999999999993" class="common">13:01</text><text x="302.4" y="212.79999999999993" class="common">13:41</text><text x="359.09999999999997" y="212.79999999999993" class="common">14:28</text><text x="415.79999999999995" y="212.79999999999993" class="common">15:22</text><text x="472.49999999999994" y="212.79999999999993" class="common">16:22</text><text x="529.1999999999999" y="212.79999999999993" class="common">17:24</text><text x="585.9" y="212.79999999999993" class="common">18:28</text><text x="642.6" y="212.79999999999993" class="common">19:31</text><text x="699.3000000000001" y="212.79999999999993" class="common">20:33</text><text x="756.0000000000001" y="212.79999999999993" class="common">21:34</text><text x="812.7000000000002" y="212.79999999999993" class="common">22:35</text><text x="869.4000000000002" y="212.79999999999993" class="common">23:35</text><text x="0" y="223.99999999999991" class="common">50N 月出</text><text x="75.60000000000001" y="223.99999999999991" class="common">---</text><text x="132.3" y="223.99999999999991" class="common">01:13</text><text x="189.0" y="223.99999999999991" class="common">02:31</text><text x="245.7" y="223.99999999999991" class="common">03:47</text><text x="302.4" y="223.99999999999991" class="common">04:59</text><text x="359.09999999999997" y="223.99999999999991" class="common">06:06</text><text x="415.79999999999995" y="223.99999999999991" class="common">07:04</text><text x="472.49999999999994" y="223.99999999999991" class="common">07:51</text><text x="529.1999999999999" y="223.99999999999991" class="common">08:29</text><text x="585.9" y="223.99999999999991" class="common">08:59</text><text x="642.6" y="223.99999999999991" class="common">09:23</text><text x="699.3000000000001" y="223.99999999999991" class="common">09:44</text><text x="756.0000000000001" y="223.99999999999991" class="common">10:02</text><text x="812.7000000000002" y="223.99999999999991" class="common">10:20</text><text x="869.4000000000002" y="223.99999999999991" class="common">10:38</text><text x="0" y="235.1999999999999" class="common">    月落</text><text x="75.60000000000001" y="235.1999999999999" class="common">11:25</text><text x="132.3" y="235.1999999999999" class="common">11:48</text><text x="189.0" y="235.1999999999999" class="common">12:13</text><text x="245.7" y="235.1999999999999" class="common">12:44</text><text x="302.4" y="235.1999999999999" class="common">13:20</text><text x="359.09999999999997" y="235.1999999999999" class="common">14:05</text><text x="415.79999999999995" y="235.1999999999999" class="common">14:59</text><text x="472.49999999999994" y="235.1999999999999" class="common">16:00</text><text x="529.1999999999999" y="235.1999999999999" class="common">17:06</text><text x="585.9" y="235.1999999999999" class="common">18:13</text><text x="642.6" y="235.1999999999999" class="common">19:20</text><text x="699.3000000000001" y="235.1999999999999" class="common">20:26</text><text x="756.0000000000001" y="235.1999999999999" class="common">21:31</text><text x="812.7000000000002" y="235.1999999999999" class="common">22:36</text><text x="869.4000000000002" y="235.1999999999999" class="common">23:40</text></g><text x="421pt" y="240pt" class="title" text-anchor="middle">2020年1月 天文普及月历</text></svg>