<?xml version="1.0" encoding="UTF-8" standalone="no"?>
<!-- Created with Inkscape (http://www.inkscape.org/) -->

<svg
   xmlns:dc="http://purl.org/dc/elements/1.1/"
   xmlns:cc="http://creativecommons.org/ns#"
   xmlns:rdf="http://www.w3.org/1999/02/22-rdf-syntax-ns#"
   xmlns:svg="http://www.w3.org/2000/svg"
   xmlns="http://www.w3.org/2000/svg"
   xmlns:sodipodi="http://sodipodi.sourceforge.net/DTD/sodipodi-0.dtd"
   xmlns:inkscape="http://www.inkscape.org/namespaces/inkscape"
   version="1.1"
   id="svg853"
   xml:space="preserve"
   width="500"
   height="300"
   viewBox="0 0 499.99998 300"
   sodipodi:docname="fig1.svg"
   inkscape:version="0.92.3 (2405546, 2018-03-11)"><metadata
     id="metadata859"><rdf:RDF><cc:Work
         rdf:about=""><dc:format>image/svg+xml</dc:format><dc:type
           rdf:resource="http://purl.org/dc/dcmitype/StillImage" /><dc:title></dc:title></cc:Work></rdf:RDF></metadata><defs
     id="defs857" /><sodipodi:namedview
     pagecolor="#ffffff"
     bordercolor="#666666"
     borderopacity="1"
     objecttolerance="10"
     gridtolerance="10"
     guidetolerance="10"
     inkscape:pageopacity="0"
     inkscape:pageshadow="2"
     inkscape:window-width="1320"
     inkscape:window-height="710"
     id="namedview855"
     showgrid="false"
     inkscape:zoom="0.95564516"
     inkscape:cx="358.27655"
     inkscape:cy="117.7808"
     inkscape:window-x="46"
     inkscape:window-y="0"
     inkscape:window-maximized="1"
     inkscape:current-layer="g861" /><g
     id="g861"
     inkscape:groupmode="layer"
     inkscape:label="2020"
     transform="matrix(1.3333333,0,0,1.3333333,0,-691.99998)"><text
       id="text885"
       style="font-variant:normal;font-weight:bold;font-size:37.5px;font-family:'Noto Sans CJK SC';-inkscape-font-specification:NotoSansCJKsc-Bold;writing-mode:lr-tb;fill:#ffffff;fill-opacity:1;fill-rule:nonzero;stroke:none"
       transform="rotate(80)"
       x="335.87924"
       y="-753.11743"><tspan
         id="tspan883"
         sodipodi:role="line"
         y="-753.11743"
         x="335.87924 373.37924 410.87924 448.37924 470.46674 507.96674 530.05426 567.55426 605.05426 642.55426 664.64178 702.14178">经度差1度=时间差4分钟</tspan></text>
<g
       id="g7850"
       transform="matrix(1.8600791,0,0,1.765836,-1349.0385,-555.69097)"><path
         d="m 857.848,680.746 c -6.043,0 -10.938,-4.894 -10.938,-10.937 0,-6.039 4.895,-10.938 10.938,-10.938 6.039,0 10.937,4.899 10.937,10.938 0,6.043 -4.898,10.937 -10.937,10.937 z"
         style="fill:#000000;fill-opacity:1;fill-rule:nonzero;stroke:none"
         id="path929"
         inkscape:connector-curvature="0" /><path
         inkscape:connector-curvature="0"
         id="path933"
         style="fill:none;stroke:#000000;stroke-width:0.70866102;stroke-linecap:butt;stroke-linejoin:round;stroke-miterlimit:4.0999999;stroke-dasharray:none;stroke-opacity:1"
         d="m 857.848,688.191 c -10.153,0 -18.383,-8.23 -18.383,-18.382 0,-10.149 8.23,-18.379 18.383,-18.379 10.152,0 18.379,8.23 18.379,18.379 0,10.152 -8.227,18.382 -18.379,18.382 z" /><path
         d="m 802.305,675.316 c -3.043,0 -5.508,-2.464 -5.508,-5.507 0,-3.039 2.465,-5.508 5.508,-5.508 3.043,0 5.507,2.469 5.507,5.508 0,3.043 -2.464,5.507 -5.507,5.507 z"
         style="fill:#000000;fill-opacity:1;fill-rule:nonzero;stroke:none"
         id="path935"
         inkscape:connector-curvature="0" /><path
         inkscape:connector-curvature="0"
         id="path939"
         style="fill:none;stroke:#000000;stroke-width:0.53211099;stroke-linecap:butt;stroke-linejoin:miter;stroke-miterlimit:4;stroke-dasharray:none;stroke-opacity:1"
         d="M 802.305,614.602 V 727.133" /><path
         inkscape:connector-curvature="0"
         id="path943"
         style="fill:none;stroke:#000000;stroke-width:0.51170897;stroke-linecap:butt;stroke-linejoin:miter;stroke-miterlimit:4;stroke-dasharray:none;stroke-opacity:1"
         d="m 730.113,669.809 h 196.75" /><path
         inkscape:connector-curvature="0"
         id="path947"
         style="fill:none;stroke:#000000;stroke-width:0.70866102;stroke-linecap:butt;stroke-linejoin:miter;stroke-miterlimit:4;stroke-dasharray:none;stroke-opacity:1"
         d="m 853.719,651.574 -51.895,18.184 50.379,17.426" /><path
         inkscape:connector-curvature="0"
         id="path951"
         style="fill:none;stroke:#000000;stroke-width:0.70866102;stroke-linecap:butt;stroke-linejoin:round;stroke-miterlimit:4.0999999;stroke-dasharray:none;stroke-opacity:1"
         d="m 826.738,669.809 c 0,13.496 -10.941,24.433 -24.433,24.433 -13.496,0 -24.434,-10.937 -24.434,-24.433 0,-13.493 10.938,-24.434 24.434,-24.434 13.492,0 24.433,10.941 24.433,24.434 z" /><path
         inkscape:connector-curvature="0"
         id="path955"
         style="fill:#ffffff;fill-opacity:1;fill-rule:nonzero;stroke:#000000;stroke-width:0.71485299;stroke-linecap:butt;stroke-linejoin:round;stroke-miterlimit:4.0999999;stroke-dasharray:none;stroke-opacity:1"
         d="m 868.82,627.953 v 20.828 h -9.465 v -20.828 z" /><path
         d="m 862.598,632.871 c -0.348,0.797 -0.914,1.567 -1.395,2.016 l 0.055,0.058 c 0.719,-0.304 1.422,-0.793 1.961,-1.488 0.144,0.031 0.23,-0.012 0.265,-0.07 z m 2.422,0.113 c 0.41,0.446 0.906,1.098 1.097,1.668 0.77,0.504 1.254,-1.07 -1.043,-1.711 z m 0.57,-2.304 h -2.113 c 0.128,-0.278 0.242,-0.528 0.324,-0.719 0.164,0.023 0.234,-0.039 0.265,-0.109 l -0.925,-0.282 c -0.082,0.258 -0.25,0.672 -0.442,1.11 h -1.406 l 0.051,0.168 h 1.281 c -0.215,0.48 -0.453,0.976 -0.648,1.32 -0.09,0.043 -0.172,0.102 -0.231,0.148 l 0.684,0.434 0.222,-0.227 h 1.188 v 1.84 c 0,0.075 -0.031,0.098 -0.129,0.098 -0.125,0 -0.723,-0.039 -0.723,-0.039 v 0.078 c 0.293,0.055 0.418,0.129 0.508,0.234 0.098,0.102 0.125,0.258 0.145,0.481 0.816,-0.07 0.929,-0.336 0.929,-0.82 v -1.872 h 1.77 c 0.086,0 0.156,-0.031 0.176,-0.097 -0.289,-0.258 -0.762,-0.614 -0.762,-0.614 l -0.422,0.536 h -0.762 v -0.84 c 0.133,-0.02 0.18,-0.059 0.192,-0.145 l -0.922,-0.082 v 1.067 h -1.149 c 0.2,-0.403 0.469,-0.977 0.715,-1.5 h 3.246 c 0.086,0 0.157,-0.032 0.168,-0.098 -0.293,-0.258 -0.793,-0.633 -0.793,-0.633 z"
         style="fill:#000000;fill-opacity:1;fill-rule:nonzero;stroke:none"
         id="path957"
         inkscape:connector-curvature="0" /><path
         d="m 866.688,637.586 c 0.089,0 0.156,-0.031 0.175,-0.094 -0.301,-0.262 -0.785,-0.625 -0.785,-0.625 l -0.445,0.547 h -1.352 c 0.043,-0.488 0.051,-0.996 0.063,-1.519 0.144,-0.024 0.195,-0.086 0.215,-0.176 l -1.008,-0.094 c 0,0.625 0.004,1.223 -0.035,1.789 h -2.227 l 0.047,0.172 h 2.168 c -0.133,1.367 -0.602,2.555 -2.27,3.562 l 0.055,0.094 c 2.176,-0.859 2.777,-2.082 2.957,-3.512 0.164,1.2 0.613,2.657 2.012,3.512 0.066,-0.41 0.281,-0.633 0.648,-0.699 l 0.012,-0.066 c -1.68,-0.676 -2.379,-1.782 -2.586,-2.891 z"
         style="fill:#000000;fill-opacity:1;fill-rule:nonzero;stroke:none"
         id="path959"
         inkscape:connector-curvature="0" /><path
         d="M 862.133,642.273 H 863 v 1.231 h -0.867 z m 1.687,3.665 c -0.281,0.062 -0.562,0.121 -0.847,0.167 v -1.156 h 0.769 c 0.086,0 0.145,-0.031 0.164,-0.097 -0.183,-0.207 -0.504,-0.516 -0.504,-0.516 l -0.289,0.437 h -0.14 v -1.089 h 0.031 L 863,643.91 h 0.102 c 0.195,0 0.507,-0.105 0.515,-0.148 v -1.395 c 0.113,-0.023 0.199,-0.07 0.227,-0.117 l -0.617,-0.469 -0.289,0.317 h -0.727 l -0.684,-0.325 v 2.192 h 0.11 c 0.304,0 0.496,-0.137 0.496,-0.18 v -0.101 h 0.246 v 2.523 l -0.305,0.051 v -1.719 c 0.098,-0.012 0.133,-0.059 0.145,-0.113 l -0.684,-0.067 v 1.977 c -0.14,0.016 -0.258,0.027 -0.355,0.035 l 0.312,0.774 c 0.067,-0.02 0.133,-0.071 0.164,-0.149 0.981,-0.375 1.672,-0.703 2.176,-0.98 z m 1.981,-2.297 v 1.355 h -1.129 v -1.355 z m 0.156,3.011 h -1.285 v -1.48 h 1.129 v 0.348 h 0.133 c 0.261,0 0.531,-0.11 0.55,-0.137 v -1.633 c 0.098,-0.02 0.176,-0.066 0.215,-0.109 l -0.574,-0.493 -0.313,0.325 h -1.14 v -1.098 h 2.016 c 0.089,0 0.144,-0.031 0.164,-0.098 -0.235,-0.226 -0.637,-0.55 -0.637,-0.55 l -0.356,0.472 h -1.097 L 864,641.836 v 4.75 c -0.07,0.055 -0.145,0.121 -0.184,0.176 l 0.688,0.402 0.211,-0.336 h 2.113 c 0.082,0 0.149,-0.031 0.168,-0.098 -0.242,-0.25 -0.668,-0.636 -0.668,-0.636 z"
         style="fill:#000000;fill-opacity:1;fill-rule:nonzero;stroke:none"
         id="path961"
         inkscape:connector-curvature="0" /><path
         inkscape:connector-curvature="0"
         id="path965"
         style="fill:#ffffff;fill-opacity:1;fill-rule:nonzero;stroke:#000000;stroke-width:0.71485299;stroke-linecap:butt;stroke-linejoin:round;stroke-miterlimit:4.0999999;stroke-dasharray:none;stroke-opacity:1"
         d="m 869.461,690.414 v 20.828 h -9.465 v -20.828 z" /><path
         d="m 864.98,693.844 h -0.593 v -1.055 h 0.593 z m 1.43,0.176 v 1.253 c -0.043,0.012 -0.082,0.016 -0.113,0.016 -0.035,0.008 -0.102,0.012 -0.141,0.012 h -0.398 c -0.106,0 -0.121,-0.024 -0.121,-0.113 v -1.168 z m -3.422,2.882 v -2.882 h 0.735 c -0.008,0.785 -0.09,1.593 -0.727,2.226 l 0.047,0.059 c 1.187,-0.578 1.332,-1.496 1.344,-2.285 h 0.593 v 1.355 c 0,0.414 0.079,0.559 0.555,0.559 h 0.34 c 0.23,0 0.402,-0.012 0.535,-0.043 v 1.011 z m 3.375,-4.289 h -4.484 l 0.055,0.176 h 1.789 v 1.055 h -0.668 l -0.754,-0.289 v 4.058 h 0.125 c 0.347,0 0.562,-0.14 0.562,-0.179 v -0.356 h 3.422 v 0.512 h 0.121 c 0.364,0 0.594,-0.152 0.594,-0.188 v -3.324 c 0.145,-0.023 0.211,-0.07 0.25,-0.125 l -0.648,-0.512 -0.348,0.403 h -0.742 v -1.055 h 1.738 c 0.09,0 0.156,-0.031 0.176,-0.098 -0.289,-0.246 -0.774,-0.597 -0.774,-0.597 z"
         style="fill:#000000;fill-opacity:1;fill-rule:nonzero;stroke:none"
         id="path967"
         inkscape:connector-curvature="0" /><path
         d="m 867.328,700.047 c 0.09,0 0.156,-0.027 0.176,-0.094 -0.301,-0.258 -0.789,-0.625 -0.789,-0.625 l -0.442,0.547 h -1.351 c 0.043,-0.484 0.047,-0.996 0.058,-1.52 0.145,-0.023 0.2,-0.082 0.219,-0.171 l -1.008,-0.098 c 0,0.625 0.004,1.226 -0.039,1.789 h -2.222 l 0.047,0.172 h 2.164 c -0.129,1.371 -0.598,2.558 -2.266,3.566 l 0.055,0.09 c 2.175,-0.859 2.777,-2.082 2.957,-3.512 0.16,1.204 0.613,2.661 2.008,3.512 0.066,-0.41 0.285,-0.629 0.648,-0.695 l 0.012,-0.067 c -1.68,-0.679 -2.375,-1.781 -2.586,-2.894 z"
         style="fill:#000000;fill-opacity:1;fill-rule:nonzero;stroke:none"
         id="path969"
         inkscape:connector-curvature="0" /><path
         d="m 862.773,704.734 h 0.864 v 1.231 h -0.864 z m 1.688,3.668 c -0.281,0.059 -0.566,0.118 -0.848,0.168 v -1.16 h 0.77 c 0.082,0 0.144,-0.027 0.16,-0.094 -0.18,-0.211 -0.504,-0.515 -0.504,-0.515 l -0.285,0.437 h -0.141 v -1.093 h 0.032 l -0.008,0.23 h 0.101 c 0.2,0 0.512,-0.109 0.52,-0.152 v -1.391 c 0.113,-0.023 0.195,-0.074 0.226,-0.121 l -0.617,-0.469 -0.289,0.32 h -0.726 l -0.684,-0.324 v 2.188 h 0.109 c 0.305,0 0.496,-0.137 0.496,-0.18 v -0.101 h 0.247 v 2.527 l -0.305,0.047 v -1.715 c 0.094,-0.012 0.133,-0.063 0.144,-0.113 l -0.683,-0.067 v 1.973 c -0.141,0.019 -0.258,0.031 -0.356,0.035 l 0.313,0.773 c 0.066,-0.015 0.133,-0.07 0.16,-0.148 0.984,-0.371 1.676,-0.703 2.18,-0.977 z m 1.98,-2.3 v 1.359 h -1.129 v -1.359 z m 0.157,3.015 h -1.286 v -1.484 h 1.129 v 0.347 h 0.129 c 0.266,0 0.535,-0.105 0.555,-0.136 v -1.633 c 0.094,-0.02 0.172,-0.066 0.215,-0.109 l -0.574,-0.493 -0.313,0.325 h -1.141 v -1.098 h 2.016 c 0.09,0 0.145,-0.027 0.16,-0.094 -0.23,-0.23 -0.633,-0.554 -0.633,-0.554 l -0.355,0.476 h -1.098 l -0.761,-0.367 v 4.754 c -0.075,0.051 -0.145,0.117 -0.188,0.172 l 0.692,0.402 0.21,-0.336 h 2.11 c 0.086,0 0.152,-0.031 0.168,-0.098 -0.238,-0.25 -0.664,-0.632 -0.664,-0.632 z"
         style="fill:#000000;fill-opacity:1;fill-rule:nonzero;stroke:none"
         id="path971"
         inkscape:connector-curvature="0" /><path
         inkscape:connector-curvature="0"
         id="path975"
         style="fill:#ffffff;fill-opacity:1;fill-rule:nonzero;stroke:#000000;stroke-width:0.70866102;stroke-linecap:butt;stroke-linejoin:round;stroke-miterlimit:4.0999999;stroke-dasharray:none;stroke-opacity:1"
         d="m 889.184,650.203 v 15.246 h -9.563 v -15.246 z" /><path
         d="m 885.992,657.109 h -1.41 v -2.617 h 2.023 c 0.083,0 0.145,-0.027 0.161,-0.094 -0.289,-0.257 -0.766,-0.625 -0.766,-0.625 l -0.434,0.551 h -0.984 v -2.008 c 0.164,-0.023 0.203,-0.086 0.223,-0.168 l -0.996,-0.097 v 5.058 h -2.231 l 0.047,0.168 h 5.418 c 0.09,0 0.156,-0.031 0.172,-0.097 -0.297,-0.25 -0.785,-0.629 -0.785,-0.629 z"
         style="fill:#000000;fill-opacity:1;fill-rule:nonzero;stroke:none"
         id="path977"
         inkscape:connector-curvature="0" /><path
         d="m 883.316,662.93 v -1.403 h 2.184 v 1.403 z m 2.125,-1.578 h -2.078 l -0.785,-0.313 v 2.563 h 0.11 c 0.304,0 0.628,-0.161 0.628,-0.227 v -0.27 h 2.184 v 0.438 h 0.125 c 0.246,0 0.621,-0.129 0.625,-0.168 v -1.723 c 0.125,-0.023 0.211,-0.086 0.254,-0.132 l -0.723,-0.551 z m -0.722,-1.055 H 883 l 0.047,0.172 h 2.617 c 0.09,0 0.148,-0.028 0.168,-0.094 -0.273,-0.246 -0.715,-0.594 -0.715,-0.594 z m -0.778,-2.348 c -0.253,0.863 -1.343,2.09 -2.379,2.719 l 0.04,0.07 c 1.203,-0.461 2.433,-1.41 3.003,-2.32 0.368,0.941 1.165,1.637 2.079,2.086 0.05,-0.262 0.246,-0.563 0.55,-0.645 l 0.008,-0.097 c -0.926,-0.25 -2.008,-0.68 -2.539,-1.414 0.192,-0.02 0.27,-0.055 0.293,-0.133 z"
         style="fill:#000000;fill-opacity:1;fill-rule:nonzero;stroke:none"
         id="path979"
         inkscape:connector-curvature="0" /><path
         inkscape:connector-curvature="0"
         id="path983"
         style="fill:#ffffff;fill-opacity:1;fill-rule:nonzero;stroke:#000000;stroke-width:0.70866102;stroke-linecap:butt;stroke-linejoin:round;stroke-miterlimit:4.0999999;stroke-dasharray:none;stroke-opacity:1"
         d="m 843.203,648.688 v 15.246 h -9.562 v -15.246 z" /><path
         d="m 840.023,651.039 h -4.425 l 0.047,0.176 h 2.261 v 4.863 h 0.137 c 0.371,0 0.613,-0.16 0.613,-0.215 v -3.418 c 0.582,0.43 1.258,1.075 1.602,1.641 0.863,0.41 1.183,-1.277 -1.602,-1.781 v -1.09 h 2.43 c 0.09,0 0.16,-0.031 0.18,-0.098 -0.305,-0.262 -0.805,-0.64 -0.805,-0.64 z"
         style="fill:#000000;fill-opacity:1;fill-rule:nonzero;stroke:none"
         id="path985"
         inkscape:connector-curvature="0" /><path
         d="m 837.336,661.414 v -1.402 h 2.184 v 1.402 z m 2.125,-1.578 h -2.078 l -0.785,-0.313 v 2.563 h 0.109 c 0.305,0 0.629,-0.16 0.629,-0.227 v -0.269 h 2.184 v 0.437 h 0.125 c 0.246,0 0.621,-0.129 0.625,-0.168 v -1.722 c 0.125,-0.024 0.21,-0.086 0.253,-0.133 l -0.722,-0.551 z m -0.723,-1.055 h -1.718 l 0.046,0.172 h 2.618 c 0.089,0 0.148,-0.027 0.168,-0.094 -0.274,-0.246 -0.715,-0.593 -0.715,-0.593 z m -0.777,-2.347 c -0.254,0.863 -1.344,2.089 -2.379,2.718 l 0.039,0.071 c 1.203,-0.461 2.434,-1.411 3.004,-2.321 0.367,0.942 1.164,1.637 2.078,2.09 0.051,-0.265 0.246,-0.566 0.551,-0.648 l 0.004,-0.098 c -0.922,-0.25 -2.004,-0.68 -2.535,-1.414 0.191,-0.02 0.269,-0.055 0.293,-0.133 z"
         style="fill:#000000;fill-opacity:1;fill-rule:nonzero;stroke:none"
         id="path987"
         inkscape:connector-curvature="0" /><path
         inkscape:connector-curvature="0"
         id="path991"
         style="fill:#ffffff;fill-opacity:1;fill-rule:nonzero;stroke:#000000;stroke-width:0.70866102;stroke-linecap:butt;stroke-linejoin:round;stroke-miterlimit:4.0999999;stroke-dasharray:none;stroke-opacity:1"
         d="m 797.148,695.871 v 15.246 h -9.562 v -15.246 z" /><path
         d="m 793.969,698.223 h -4.426 l 0.047,0.175 h 2.262 v 4.868 h 0.136 c 0.375,0 0.614,-0.164 0.614,-0.219 v -3.418 c 0.582,0.43 1.261,1.074 1.601,1.644 0.863,0.407 1.184,-1.277 -1.601,-1.781 v -1.094 h 2.429 c 0.09,0 0.164,-0.031 0.18,-0.097 -0.305,-0.262 -0.805,-0.641 -0.805,-0.641 z"
         style="fill:#000000;fill-opacity:1;fill-rule:nonzero;stroke:none"
         id="path993"
         inkscape:connector-curvature="0" /><path
         d="m 792.645,703.68 c 0.179,0.238 0.359,0.617 0.39,0.961 0.629,0.496 1.301,-0.739 -0.351,-0.996 z m -1.411,2.679 -0.332,0.325 h -0.695 c 0.047,-0.329 0.098,-0.766 0.125,-1.09 h 0.594 v 0.269 h 0.105 c 0.196,0 0.516,-0.113 0.52,-0.152 v -1.367 c 0.133,-0.024 0.222,-0.078 0.265,-0.133 l -0.656,-0.484 -0.297,0.332 h -1.308 l 0.05,0.171 h 1.321 v 1.196 h -0.442 l -0.695,-0.313 c -0.012,0.383 -0.086,1.09 -0.152,1.524 -0.078,0.043 -0.149,0.09 -0.203,0.136 l 0.582,0.348 0.211,-0.262 h 0.73 c -0.059,0.985 -0.172,1.547 -0.324,1.672 -0.055,0.043 -0.102,0.055 -0.199,0.055 -0.118,0 -0.465,-0.024 -0.676,-0.043 l -0.008,0.086 c 0.223,0.047 0.402,0.121 0.488,0.211 0.082,0.09 0.102,0.238 0.102,0.418 0.312,0 0.539,-0.059 0.719,-0.203 0.3,-0.235 0.449,-0.848 0.515,-2.102 0.129,-0.015 0.207,-0.047 0.246,-0.101 z m 2.938,-1.55 h -2.555 l 0.047,0.171 h 1.215 c -0.18,0.438 -0.625,1.184 -0.961,1.43 -0.055,0.035 -0.191,0.067 -0.191,0.067 l 0.324,0.777 c 0.051,-0.024 0.105,-0.07 0.148,-0.137 0.403,-0.109 0.77,-0.226 1.086,-0.332 -0.437,0.61 -0.976,1.219 -1.379,1.5 -0.086,0.055 -0.265,0.09 -0.265,0.09 l 0.355,0.813 c 0.047,-0.02 0.094,-0.055 0.137,-0.11 0.851,-0.238 1.586,-0.492 2.078,-0.672 0.09,0.246 0.156,0.492 0.18,0.727 0.664,0.582 1.312,-0.817 -0.524,-1.613 l -0.058,0.035 c 0.117,0.211 0.238,0.445 0.347,0.695 -0.726,0.043 -1.418,0.086 -1.886,0.109 0.835,-0.566 1.808,-1.433 2.269,-2.05 0.133,0.015 0.215,-0.032 0.246,-0.086 l -0.863,-0.493 c -0.09,0.211 -0.242,0.461 -0.414,0.731 -0.481,0.016 -0.918,0.027 -1.254,0.031 0.461,-0.293 0.996,-0.738 1.301,-1.086 0.113,0.012 0.187,-0.031 0.211,-0.082 l -0.715,-0.344 h 1.988 c 0.082,0 0.149,-0.031 0.168,-0.093 -0.246,-0.235 -0.668,-0.578 -0.668,-0.578 z"
         style="fill:#000000;fill-opacity:1;fill-rule:nonzero;stroke:none"
         id="path995"
         inkscape:connector-curvature="0" /><path
         inkscape:connector-curvature="0"
         id="path999"
         style="fill:#ffffff;fill-opacity:1;fill-rule:nonzero;stroke:#000000;stroke-width:0.70866102;stroke-linecap:butt;stroke-linejoin:round;stroke-miterlimit:4.0999999;stroke-dasharray:none;stroke-opacity:1"
         d="m 814.566,627.277 v 15.246 h -9.562 v -15.246 z" /><path
         d="m 811.375,634.184 h -1.41 v -2.618 h 2.023 c 0.082,0 0.145,-0.027 0.16,-0.093 -0.289,-0.258 -0.765,-0.625 -0.765,-0.625 l -0.434,0.55 h -0.984 v -2.007 c 0.16,-0.024 0.203,-0.086 0.223,-0.168 l -0.997,-0.098 v 5.059 h -2.234 l 0.051,0.168 h 5.418 c 0.09,0 0.156,-0.032 0.172,-0.098 -0.297,-0.25 -0.786,-0.629 -0.786,-0.629 z"
         style="fill:#000000;fill-opacity:1;fill-rule:nonzero;stroke:none"
         id="path1001"
         inkscape:connector-curvature="0" /><path
         d="m 810.062,635.086 c 0.18,0.238 0.36,0.617 0.387,0.957 0.633,0.5 1.305,-0.738 -0.347,-0.996 z m -1.41,2.68 -0.332,0.324 h -0.695 c 0.047,-0.328 0.098,-0.766 0.125,-1.09 h 0.594 v 0.27 h 0.101 c 0.2,0 0.52,-0.114 0.524,-0.153 v -1.367 c 0.133,-0.023 0.222,-0.078 0.265,-0.133 l -0.656,-0.484 -0.301,0.328 h -1.304 l 0.05,0.176 h 1.321 v 1.195 h -0.442 l -0.699,-0.312 c -0.012,0.382 -0.082,1.089 -0.148,1.523 -0.078,0.043 -0.149,0.09 -0.203,0.137 l 0.582,0.347 0.211,-0.261 h 0.73 c -0.059,0.984 -0.176,1.546 -0.324,1.672 -0.055,0.042 -0.102,0.054 -0.199,0.054 -0.118,0 -0.465,-0.023 -0.676,-0.043 l -0.008,0.086 c 0.223,0.047 0.402,0.121 0.488,0.211 0.082,0.09 0.102,0.238 0.102,0.418 0.312,0 0.539,-0.059 0.719,-0.203 0.3,-0.234 0.449,-0.848 0.515,-2.102 0.125,-0.015 0.203,-0.047 0.246,-0.101 z m 2.938,-1.555 h -2.555 l 0.047,0.176 h 1.211 c -0.18,0.437 -0.621,1.179 -0.957,1.425 -0.055,0.04 -0.191,0.067 -0.191,0.067 l 0.324,0.781 c 0.051,-0.023 0.105,-0.07 0.148,-0.137 0.403,-0.109 0.77,-0.23 1.086,-0.332 -0.437,0.606 -0.976,1.219 -1.379,1.5 -0.086,0.055 -0.265,0.09 -0.265,0.09 l 0.355,0.813 c 0.047,-0.02 0.094,-0.055 0.137,-0.11 0.851,-0.238 1.586,-0.492 2.074,-0.672 0.094,0.247 0.156,0.493 0.184,0.727 0.664,0.582 1.312,-0.816 -0.524,-1.613 l -0.058,0.035 c 0.117,0.211 0.238,0.445 0.347,0.695 -0.726,0.043 -1.418,0.086 -1.886,0.11 0.835,-0.567 1.808,-1.434 2.269,-2.055 0.133,0.019 0.215,-0.027 0.246,-0.082 l -0.863,-0.492 c -0.09,0.211 -0.242,0.461 -0.414,0.73 -0.481,0.012 -0.918,0.024 -1.254,0.031 0.461,-0.293 0.996,-0.738 1.301,-1.086 0.113,0.012 0.187,-0.031 0.211,-0.085 l -0.715,-0.34 h 1.984 c 0.086,0 0.152,-0.032 0.168,-0.098 -0.246,-0.234 -0.664,-0.574 -0.664,-0.574 z"
         style="fill:#000000;fill-opacity:1;fill-rule:nonzero;stroke:none"
         id="path1003"
         inkscape:connector-curvature="0" /><path
         inkscape:connector-curvature="0"
         id="path1007"
         style="fill:#ffffff;fill-opacity:1;fill-rule:nonzero;stroke:#000000;stroke-width:0.70866102;stroke-linecap:butt;stroke-linejoin:round;stroke-miterlimit:4.0999999;stroke-dasharray:none;stroke-opacity:1"
         d="m 823.332,673.043 v 9.703 h -9.703 v -9.703 z" /><path
         d="m 816.062,675.137 c 0.145,0.273 0.297,0.664 0.309,1.008 0.516,0.472 1.156,-0.547 -0.246,-1.032 z m 2.458,1.972 c 0.144,-0.023 0.191,-0.078 0.195,-0.156 l -0.785,-0.07 v 1.601 h -0.407 c 0,-0.066 0,-0.132 0,-0.191 v -1.746 h 1.231 c 0.082,0 0.141,-0.031 0.16,-0.098 -0.226,-0.215 -0.605,-0.523 -0.605,-0.523 l -0.332,0.453 h -0.473 c 0.312,-0.309 0.656,-0.684 0.859,-0.957 0.133,0 0.203,-0.051 0.227,-0.129 l -0.887,-0.219 c -0.078,0.379 -0.219,0.914 -0.348,1.305 h -1.707 l 0.051,0.168 h 1.188 v 1.937 h -0.426 v -1.379 c 0.168,-0.031 0.215,-0.078 0.227,-0.152 l -0.805,-0.07 v 1.547 c -0.071,0.054 -0.137,0.113 -0.184,0.16 l 0.61,0.379 0.195,-0.313 h 0.375 c -0.039,0.793 -0.246,1.465 -1.086,2 l 0.055,0.059 c 1.332,-0.481 1.613,-1.231 1.664,-2.059 h 0.418 v 0.403 h 0.097 c 0.227,0 0.493,-0.118 0.493,-0.172 z m 1.042,1.106 c 0.004,-0.145 0.004,-0.297 0.004,-0.445 v -0.739 h 0.829 v 1.184 z m 0.833,-2.496 v 1.14 h -0.829 v -1.14 z m 0.253,-0.528 -0.312,0.352 h -0.664 l -0.746,-0.27 v 2.504 c 0,1.145 -0.09,2.121 -0.883,2.883 l 0.066,0.051 c 1.11,-0.582 1.383,-1.422 1.442,-2.324 h 0.844 v 1.41 c 0,0.086 -0.024,0.133 -0.129,0.133 -0.133,0 -0.782,-0.047 -0.782,-0.047 v 0.082 c 0.305,0.055 0.446,0.133 0.547,0.234 0.082,0.102 0.117,0.258 0.145,0.473 0.785,-0.063 0.886,-0.336 0.886,-0.801 v -4.039 c 0.122,-0.031 0.211,-0.078 0.25,-0.133 z"
         style="fill:#000000;fill-opacity:1;fill-rule:nonzero;stroke:none"
         id="path1009"
         inkscape:connector-curvature="0" /><path
         inkscape:connector-curvature="0"
         id="path1013"
         style="fill:#ffffff;fill-opacity:1;fill-rule:nonzero;stroke:#000000;stroke-width:0.70866102;stroke-linecap:butt;stroke-linejoin:round;stroke-miterlimit:4.0999999;stroke-dasharray:none;stroke-opacity:1"
         d="m 790.387,655.816 v 9.704 h -9.703 v -9.704 z" /><path
         d="m 783.422,657.848 c 0.191,0.203 0.379,0.539 0.406,0.84 0.637,0.468 1.254,-0.758 -0.363,-0.876 z m -0.059,1.168 v 1.105 c 0,0.113 -0.043,0.168 -0.324,0.344 l 0.504,0.664 c 0.039,-0.031 0.082,-0.078 0.117,-0.145 0.738,-0.484 1.34,-0.941 1.668,-1.199 l -0.023,-0.07 c -0.453,0.168 -0.907,0.328 -1.278,0.453 v -1.152 h 1.403 c 0.086,0 0.144,-0.028 0.164,-0.094 -0.223,-0.223 -0.606,-0.547 -0.606,-0.547 l -0.324,0.473 h -1.98 l 0.046,0.168 z m 2.922,0.625 c 0.024,-0.145 0.027,-0.286 0.027,-0.426 v -0.09 h 1.004 v 0.516 z m 1.031,-1.207 v 0.523 h -1.004 v -0.523 z m 0.004,4.675 h -1.414 v -0.754 h 1.735 c 0.082,0 0.148,-0.031 0.168,-0.097 -0.254,-0.215 -0.649,-0.516 -0.649,-0.516 l -0.355,0.438 h -0.899 v -0.684 h 2.086 c 0.09,0 0.156,-0.031 0.168,-0.098 -0.207,-0.179 -0.531,-0.418 -0.633,-0.496 0.383,-0.101 0.442,-0.3 0.442,-0.601 v -1.762 c 0.121,-0.027 0.203,-0.078 0.242,-0.121 l -0.66,-0.492 -0.297,0.336 h -0.844 l -0.746,-0.27 v 1.231 c 0,0.66 -0.125,1.3 -0.945,1.8 l 0.039,0.063 c 0.984,-0.305 1.359,-0.789 1.488,-1.27 h 1.07 v 0.426 c 0,0.078 -0.023,0.121 -0.121,0.121 -0.136,0 -0.73,-0.043 -0.73,-0.043 v 0.082 c 0.305,0.043 0.418,0.11 0.508,0.18 0.089,0.086 0.121,0.211 0.14,0.387 0.129,-0.012 0.246,-0.024 0.34,-0.051 l -0.324,0.41 h -4.067 l 0.047,0.168 h 2.047 v 0.684 h -1.765 l 0.05,0.175 h 1.715 v 0.754 h -2.437 l 0.054,0.176 h 5.43 c 0.09,0 0.152,-0.031 0.168,-0.097 -0.258,-0.227 -0.676,-0.547 -0.676,-0.547 z"
         style="fill:#000000;fill-opacity:1;fill-rule:nonzero;stroke:none"
         id="path1015"
         inkscape:connector-curvature="0" /><path
         inkscape:connector-curvature="0"
         id="path1019"
         style="fill:#000000;fill-opacity:1;fill-rule:nonzero;stroke:#000000;stroke-width:0.70866102;stroke-linecap:butt;stroke-linejoin:round;stroke-miterlimit:4.0999999;stroke-dasharray:none;stroke-opacity:1"
         d="m 805.23,646.082 c 0,1.781 -1.441,3.223 -3.218,3.223 -1.778,0 -3.219,-1.442 -3.219,-3.223 0,-1.777 1.441,-3.219 3.219,-3.219 1.777,0 3.218,1.442 3.218,3.219 z" /><path
         inkscape:connector-curvature="0"
         id="path1023"
         style="fill:#000000;fill-opacity:1;fill-rule:nonzero;stroke:#000000;stroke-width:0.70866102;stroke-linecap:butt;stroke-linejoin:round;stroke-miterlimit:4.0999999;stroke-dasharray:none;stroke-opacity:1"
         d="m 780.797,669.758 c 0,1.781 -1.442,3.222 -3.219,3.222 -1.777,0 -3.219,-1.441 -3.219,-3.222 0,-1.778 1.442,-3.219 3.219,-3.219 1.777,0 3.219,1.441 3.219,3.219 z" /><path
         inkscape:connector-curvature="0"
         id="path1027"
         style="fill:#000000;fill-opacity:1;fill-rule:nonzero;stroke:#000000;stroke-width:0.70866102;stroke-linecap:butt;stroke-linejoin:round;stroke-miterlimit:4.0999999;stroke-dasharray:none;stroke-opacity:1"
         d="m 805.422,694.004 c 0,1.777 -1.442,3.219 -3.223,3.219 -1.777,0 -3.219,-1.442 -3.219,-3.219 0,-1.781 1.442,-3.223 3.219,-3.223 1.781,0 3.223,1.442 3.223,3.223 z" /><path
         inkscape:connector-curvature="0"
         id="path1031"
         style="fill:#000000;fill-opacity:1;fill-rule:nonzero;stroke:#000000;stroke-width:0.70866102;stroke-linecap:butt;stroke-linejoin:round;stroke-miterlimit:4.0999999;stroke-dasharray:none;stroke-opacity:1"
         d="m 829.664,669.758 c 0,1.781 -1.441,3.222 -3.219,3.222 -1.777,0 -3.218,-1.441 -3.218,-3.222 0,-1.778 1.441,-3.219 3.218,-3.219 1.778,0 3.219,1.441 3.219,3.219 z" /><path
         d="m 787.98,641.02 c 0.04,-0.282 0.043,-0.563 0.043,-0.84 v -0.371 h 1.934 v 1.211 z m 1.977,-2.543 v 1.164 h -1.934 v -1.164 z m 0.27,-0.559 -0.332,0.387 h -1.758 l -0.828,-0.289 v 2.172 c 0,1.195 -0.141,2.296 -1.133,3.167 l 0.054,0.047 c 1.176,-0.55 1.59,-1.367 1.727,-2.214 h 2 v 1.269 c 0,0.09 -0.031,0.137 -0.145,0.137 -0.148,0 -0.898,-0.047 -0.898,-0.047 v 0.078 c 0.348,0.063 0.504,0.141 0.617,0.258 0.106,0.105 0.145,0.281 0.168,0.519 0.867,-0.082 0.989,-0.363 0.989,-0.863 v -3.949 c 0.121,-0.024 0.203,-0.078 0.242,-0.125 z"
         style="fill:#000000;fill-opacity:1;fill-rule:nonzero;stroke:none"
         id="path1033"
         inkscape:connector-curvature="0" /><path
         d="m 794.203,641.195 c -0.258,0.114 -0.519,0.227 -0.777,0.328 v -1.277 h 0.664 c 0.086,0 0.144,-0.027 0.156,-0.094 -0.176,-0.211 -0.492,-0.523 -0.492,-0.523 l -0.281,0.445 h -0.047 v -1.484 h 0.699 c 0.086,0 0.145,-0.028 0.164,-0.094 -0.219,-0.23 -0.59,-0.558 -0.59,-0.558 l -0.328,0.48 h -1.266 l 0.047,0.172 h 0.606 v 1.484 h -0.613 l 0.05,0.172 h 0.563 v 1.539 c -0.301,0.106 -0.559,0.195 -0.727,0.242 l 0.356,0.766 c 0.07,-0.031 0.125,-0.105 0.136,-0.184 0.774,-0.539 1.34,-1.011 1.704,-1.347 z m -0.094,-1.609 c 0.157,0.32 0.313,0.758 0.313,1.148 0.543,0.539 1.246,-0.578 -0.254,-1.172 z m 2.793,-0.145 c -0.152,0.344 -0.347,0.747 -0.539,1.086 -0.148,-0.363 -0.269,-0.8 -0.347,-1.332 h 1.535 c 0.086,0 0.152,-0.027 0.168,-0.093 -0.157,-0.137 -0.364,-0.317 -0.504,-0.434 0.199,-0.215 0.078,-0.699 -0.879,-0.688 l -0.051,0.04 c 0.203,0.156 0.422,0.441 0.477,0.687 0.05,0.027 0.101,0.047 0.148,0.059 l -0.191,0.257 H 796 v -0.984 c 0.148,-0.023 0.195,-0.078 0.207,-0.16 l -0.898,-0.09 v 1.234 h -1.465 l 0.047,0.172 h 1.418 v 1.946 c -0.758,0.41 -1.477,0.781 -1.782,0.914 l 0.516,0.722 c 0.059,-0.035 0.102,-0.113 0.105,-0.195 0.493,-0.461 0.872,-0.863 1.161,-1.184 v 1.176 c 0,0.078 -0.032,0.11 -0.133,0.11 -0.125,0 -0.731,-0.043 -0.731,-0.043 v 0.086 c 0.301,0.046 0.426,0.117 0.52,0.214 0.097,0.098 0.121,0.25 0.14,0.45 0.786,-0.059 0.895,-0.317 0.895,-0.786 v -2.878 c 0.16,1.628 0.504,2.445 1.188,3.136 0.093,-0.347 0.316,-0.613 0.605,-0.683 l 0.016,-0.059 c -0.528,-0.289 -1.012,-0.687 -1.356,-1.398 0.32,-0.231 0.715,-0.5 0.985,-0.715 0.121,0.015 0.167,0.004 0.21,-0.047 z"
         style="fill:#000000;fill-opacity:1;fill-rule:nonzero;stroke:none"
         id="path1035"
         inkscape:connector-curvature="0" /><path
         d="m 789.855,677.906 h 0.707 c 0.075,0 0.133,-0.027 0.153,-0.094 -0.168,-0.23 -0.516,-0.582 -0.516,-0.582 l -0.301,0.508 h -0.043 v -1.48 c 0.168,-0.024 0.211,-0.086 0.223,-0.168 l -0.883,-0.086 v 1.734 h -0.629 l 0.047,0.168 h 0.582 v 2.004 c -0.3,0.098 -0.55,0.176 -0.715,0.219 l 0.348,0.797 c 0.074,-0.031 0.129,-0.102 0.145,-0.18 0.769,-0.527 1.308,-0.976 1.668,-1.289 l -0.024,-0.062 c -0.25,0.101 -0.508,0.199 -0.762,0.289 z m 3.336,-0.519 c -0.011,1.242 -0.046,1.703 -0.144,1.804 -0.035,0.036 -0.07,0.047 -0.149,0.047 -0.078,0 -0.222,-0.004 -0.312,-0.011 v -1.618 z m 0.707,2.308 h -0.066 c -0.125,0.414 -0.238,0.715 -0.316,0.828 -0.055,0.059 -0.121,0.086 -0.223,0.09 -0.125,0.012 -0.371,0.02 -0.672,0.02 h -0.809 c -0.312,0 -0.402,-0.055 -0.402,-0.235 v -2.363 l 0.528,-0.195 v 2.437 h 0.121 c 0.246,0 0.527,-0.132 0.527,-0.199 v -0.762 c 0.133,0.043 0.203,0.098 0.25,0.18 0.062,0.09 0.066,0.246 0.066,0.453 0.258,0 0.469,-0.062 0.625,-0.207 0.254,-0.215 0.305,-0.652 0.325,-2.242 0.121,-0.02 0.191,-0.059 0.234,-0.109 l -0.613,-0.504 -0.348,0.336 h 0.012 l -0.059,0.019 -0.492,0.18 v -1.277 c 0.16,-0.024 0.203,-0.086 0.215,-0.168 l -0.863,-0.09 v 1.769 l -0.528,0.192 v -1.207 c 0.149,-0.024 0.203,-0.09 0.215,-0.168 l -0.887,-0.094 v 1.715 l -0.703,0.258 0.113,0.144 0.59,-0.215 v 2.297 c 0,0.586 0.262,0.715 0.996,0.715 h 0.828 c 1.336,0 1.657,-0.121 1.657,-0.457 0,-0.125 -0.074,-0.211 -0.297,-0.289 z"
         style="fill:#000000;fill-opacity:1;fill-rule:nonzero;stroke:none"
         id="path1037"
         inkscape:connector-curvature="0" /><path
         d="m 796.648,679.301 c -0.257,0.113 -0.523,0.226 -0.781,0.328 v -1.277 h 0.668 c 0.082,0 0.141,-0.032 0.156,-0.098 -0.175,-0.207 -0.492,-0.52 -0.492,-0.52 l -0.285,0.446 h -0.047 v -1.485 h 0.703 c 0.082,0 0.145,-0.031 0.16,-0.093 -0.214,-0.231 -0.585,-0.559 -0.585,-0.559 l -0.333,0.48 h -1.265 l 0.047,0.172 h 0.609 v 1.485 h -0.613 l 0.047,0.172 h 0.566 v 1.535 c -0.301,0.109 -0.558,0.199 -0.726,0.246 l 0.351,0.762 c 0.074,-0.028 0.129,-0.102 0.141,-0.18 0.773,-0.539 1.336,-1.012 1.703,-1.348 z m -0.097,-1.61 c 0.156,0.321 0.312,0.758 0.312,1.145 0.547,0.543 1.25,-0.574 -0.25,-1.168 z m 2.797,-0.144 c -0.157,0.344 -0.348,0.746 -0.539,1.086 -0.153,-0.363 -0.27,-0.805 -0.348,-1.332 h 1.535 c 0.082,0 0.149,-0.028 0.168,-0.094 -0.156,-0.141 -0.367,-0.32 -0.504,-0.434 0.199,-0.214 0.078,-0.703 -0.883,-0.691 l -0.047,0.043 c 0.204,0.156 0.418,0.437 0.473,0.684 0.055,0.031 0.102,0.05 0.152,0.062 l -0.195,0.258 h -0.719 v -0.984 c 0.149,-0.024 0.2,-0.079 0.211,-0.165 l -0.902,-0.089 v 1.238 h -1.461 l 0.047,0.172 h 1.414 v 1.945 c -0.754,0.406 -1.473,0.781 -1.781,0.91 l 0.515,0.727 c 0.063,-0.035 0.102,-0.113 0.11,-0.195 0.492,-0.465 0.871,-0.868 1.156,-1.184 v 1.176 c 0,0.078 -0.027,0.109 -0.129,0.109 -0.129,0 -0.734,-0.043 -0.734,-0.043 v 0.082 c 0.301,0.051 0.425,0.121 0.523,0.219 0.094,0.094 0.121,0.25 0.137,0.449 0.785,-0.058 0.894,-0.316 0.894,-0.785 v -2.883 c 0.164,1.633 0.504,2.449 1.188,3.141 0.098,-0.348 0.32,-0.614 0.605,-0.684 l 0.02,-0.062 c -0.527,-0.285 -1.016,-0.684 -1.356,-1.399 0.317,-0.226 0.715,-0.496 0.985,-0.711 0.117,0.016 0.168,0.004 0.207,-0.051 z"
         style="fill:#000000;fill-opacity:1;fill-rule:nonzero;stroke:none"
         id="path1039"
         inkscape:connector-curvature="0" /><path
         d="m 854.426,668.449 h 2.953 c 0.113,0 0.203,-0.039 0.226,-0.121 -0.425,-0.355 -1.128,-0.887 -1.128,-0.887 l -0.629,0.793 h -1.407 c 0.043,-0.535 0.051,-1.089 0.067,-1.648 0.191,-0.031 0.258,-0.098 0.281,-0.211 l -1.508,-0.145 c 0,0.688 0.008,1.356 -0.027,2.004 h -2.621 l 0.062,0.215 h 2.543 c -0.136,1.77 -0.676,3.399 -2.769,4.844 l 0.066,0.098 c 1.453,-0.575 2.363,-1.289 2.938,-2.082 0.187,0.421 0.316,0.921 0.293,1.414 0.961,0.918 2.105,-0.938 -0.149,-1.633 0.422,-0.66 0.633,-1.371 0.742,-2.129 0.227,1.559 0.801,3.375 2.399,4.422 0.097,-0.629 0.422,-0.992 0.992,-1.098 l 0.004,-0.09 c -2.117,-0.828 -3.055,-2.25 -3.336,-3.726 z"
         style="fill:#ffffff;fill-opacity:1;fill-rule:nonzero;stroke:none"
         id="path1041"
         inkscape:connector-curvature="0" /><path
         d="m 862.238,672.359 v -2.566 h 1.574 v 2.566 z m 1.574,-5.265 v 2.488 h -1.574 v -2.488 z m -4.374,3.82 v -3.918 h 0.492 c -0.063,0.598 -0.207,1.481 -0.336,1.988 0.336,0.454 0.461,1.032 0.461,1.532 0,0.195 -0.051,0.308 -0.141,0.363 -0.055,0.027 -0.094,0.035 -0.168,0.035 z m 4.871,-4.66 -0.543,0.629 h -1.43 l -1.145,-0.426 v 0.523 l -0.793,-0.718 -0.539,0.519 h -0.316 l -1.129,-0.414 v 7.024 h 0.188 c 0.523,0 0.836,-0.25 0.836,-0.329 v -2.035 c 0.128,0.047 0.21,0.121 0.253,0.207 0.071,0.141 0.11,0.567 0.11,0.875 0.953,-0.007 1.254,-0.527 1.254,-1.261 0,-0.637 -0.395,-1.438 -1.262,-1.879 0.461,-0.477 0.977,-1.211 1.277,-1.672 0.047,0 0.082,0 0.121,-0.008 v 6.078 h 0.192 c 0.535,0 0.855,-0.219 0.855,-0.297 v -0.496 h 1.574 v 0.672 H 864 c 0.551,0 0.914,-0.25 0.914,-0.316 v -5.723 c 0.184,-0.039 0.274,-0.113 0.344,-0.184 z"
         style="fill:#ffffff;fill-opacity:1;fill-rule:nonzero;stroke:none"
         id="path1043"
         inkscape:connector-curvature="0" /><path
         inkscape:connector-curvature="0"
         id="path1047"
         style="fill:#000000;fill-opacity:1;fill-rule:nonzero;stroke:#000000;stroke-width:0.70866102;stroke-linecap:butt;stroke-linejoin:round;stroke-miterlimit:4.0999999;stroke-dasharray:none;stroke-opacity:1"
         d="m 857.746,651.445 c 0,1.782 -1.441,3.223 -3.219,3.223 -1.777,0 -3.218,-1.441 -3.218,-3.223 0,-1.777 1.441,-3.218 3.218,-3.218 1.778,0 3.219,1.441 3.219,3.218 z" /><path
         inkscape:connector-curvature="0"
         id="path1051"
         style="fill:#000000;fill-opacity:1;fill-rule:nonzero;stroke:#000000;stroke-width:0.70866102;stroke-linecap:butt;stroke-linejoin:round;stroke-miterlimit:4.0999999;stroke-dasharray:none;stroke-opacity:1"
         d="m 879.668,669.379 c 0,1.781 -1.441,3.223 -3.219,3.223 -1.781,0 -3.222,-1.442 -3.222,-3.223 0,-1.777 1.441,-3.219 3.222,-3.219 1.778,0 3.219,1.442 3.219,3.219 z" /><path
         inkscape:connector-curvature="0"
         id="path1055"
         style="fill:#000000;fill-opacity:1;fill-rule:nonzero;stroke:#000000;stroke-width:0.70866102;stroke-linecap:butt;stroke-linejoin:round;stroke-miterlimit:4.0999999;stroke-dasharray:none;stroke-opacity:1"
         d="m 842.922,669.379 c 0,1.781 -1.442,3.223 -3.219,3.223 -1.777,0 -3.219,-1.442 -3.219,-3.223 0,-1.777 1.442,-3.219 3.219,-3.219 1.777,0 3.219,1.442 3.219,3.219 z" /><path
         inkscape:connector-curvature="0"
         id="path1059"
         style="fill:#000000;fill-opacity:1;fill-rule:nonzero;stroke:#000000;stroke-width:0.70866102;stroke-linecap:butt;stroke-linejoin:round;stroke-miterlimit:4.0999999;stroke-dasharray:none;stroke-opacity:1"
         d="m 857.746,687.562 c 0,1.778 -1.441,3.219 -3.219,3.219 -1.777,0 -3.218,-1.441 -3.218,-3.219 0,-1.777 1.441,-3.218 3.218,-3.218 1.778,0 3.219,1.441 3.219,3.218 z" /><path
         d="m 885.621,673.238 -0.328,0.371 h -1.398 c 0.019,-0.281 0.031,-0.582 0.043,-0.898 0.144,-0.02 0.203,-0.086 0.214,-0.168 l -0.949,-0.078 c 0,0.406 -0.004,0.793 -0.027,1.144 h -1.238 l -0.754,-0.312 v 4.789 h 0.113 c 0.301,0 0.586,-0.168 0.586,-0.258 v -4.043 h 1.281 c -0.078,1.039 -0.344,1.852 -1.226,2.539 l 0.066,0.09 c 0.973,-0.414 1.441,-0.961 1.676,-1.641 0.347,0.411 0.695,0.942 0.816,1.418 0.672,0.481 1.149,-0.894 -0.758,-1.609 0.071,-0.246 0.114,-0.516 0.137,-0.797 h 1.477 v 3.379 c 0,0.09 -0.036,0.137 -0.149,0.137 -0.199,0 -1.015,-0.055 -1.015,-0.055 v 0.086 c 0.378,0.059 0.546,0.141 0.671,0.258 0.125,0.105 0.168,0.273 0.203,0.508 0.879,-0.082 1.004,-0.371 1.004,-0.856 v -3.351 c 0.122,-0.024 0.204,-0.079 0.239,-0.114 z"
         style="fill:#000000;fill-opacity:1;fill-rule:nonzero;stroke:none"
         id="path1061"
         inkscape:connector-curvature="0" /><path
         d="m 892.059,673.246 c 0.086,0 0.152,-0.031 0.168,-0.098 -0.247,-0.222 -0.653,-0.55 -0.653,-0.55 l -0.367,0.48 h -1.973 l 0.047,0.168 z m -3.891,-0.762 c -0.254,0.489 -0.805,1.235 -1.32,1.707 l 0.05,0.067 c 0.715,-0.317 1.411,-0.809 1.844,-1.211 0.133,0.023 0.192,-0.008 0.227,-0.067 z m 0.062,1.215 c -0.285,0.633 -0.91,1.621 -1.527,2.262 l 0.055,0.066 c 0.316,-0.179 0.621,-0.394 0.91,-0.621 v 2.699 h 0.133 c 0.269,0 0.562,-0.14 0.574,-0.187 v -2.875 c 0.109,-0.023 0.164,-0.066 0.187,-0.113 l -0.253,-0.094 c 0.207,-0.199 0.39,-0.398 0.543,-0.578 0.144,0.019 0.203,-0.016 0.234,-0.07 z m 3.153,0.758 h -2.485 l 0.047,0.172 h 1.735 v 2.535 c 0,0.078 -0.043,0.117 -0.149,0.117 -0.176,0 -1.062,-0.054 -1.062,-0.054 v 0.078 c 0.406,0.062 0.582,0.144 0.707,0.246 0.125,0.105 0.176,0.277 0.191,0.504 0.895,-0.059 1.031,-0.395 1.031,-0.875 v -2.551 h 0.872 c 0.085,0 0.152,-0.027 0.168,-0.094 -0.25,-0.234 -0.676,-0.57 -0.676,-0.57 z"
         style="fill:#000000;fill-opacity:1;fill-rule:nonzero;stroke:none"
         id="path1063"
         inkscape:connector-curvature="0" /><path
         d="m 896.805,673.047 v 0.664 h -2.321 v -0.664 z m -2.321,1.523 v -0.691 h 2.321 v 0.691 z m 2.856,3.145 h -1.278 v -0.887 h 1.727 c 0.078,0 0.145,-0.027 0.164,-0.09 -0.242,-0.234 -0.656,-0.57 -0.656,-0.57 l -0.363,0.496 h -0.872 v -0.754 h 1.778 c 0.082,0 0.14,-0.031 0.16,-0.098 -0.238,-0.234 -0.66,-0.57 -0.66,-0.57 l -0.379,0.492 h -0.899 v -0.589 c 0.161,-0.024 0.204,-0.083 0.215,-0.172 l -0.965,-0.086 v 0.847 h -0.871 c 0.098,-0.132 0.192,-0.277 0.278,-0.425 0.133,0.019 0.203,-0.02 0.234,-0.098 l -0.617,-0.25 c 0.09,-0.043 0.148,-0.086 0.148,-0.113 v -0.102 h 2.321 v 0.25 h 0.133 c 0.242,0 0.613,-0.125 0.617,-0.172 v -1.656 c 0.129,-0.027 0.207,-0.078 0.242,-0.129 l -0.707,-0.539 -0.344,0.371 h -2.219 l -0.789,-0.305 v 2.508 h 0.11 c 0.054,0 0.113,-0.004 0.168,-0.012 -0.239,0.708 -0.629,1.352 -1.02,1.758 l 0.066,0.055 c 0.458,-0.211 0.883,-0.527 1.247,-0.965 h 1.003 v 0.754 h -1.624 l 0.046,0.164 h 1.578 v 0.887 h -2.492 l 0.051,0.168 h 5.356 c 0.085,0 0.152,-0.031 0.168,-0.098 -0.25,-0.238 -0.676,-0.586 -0.676,-0.586 z"
         style="fill:#000000;fill-opacity:1;fill-rule:nonzero;stroke:none"
         id="path1065"
         inkscape:connector-curvature="0" /><path
         inkscape:connector-curvature="0"
         id="path1069"
         style="fill:none;stroke:#000000;stroke-width:0.62349701;stroke-linecap:butt;stroke-linejoin:round;stroke-miterlimit:4.0999999;stroke-dasharray:none;stroke-opacity:1"
         d="m 919.797,670.867 c 0,27.817 -40.762,50.371 -91.047,50.371 -50.289,0 -91.051,-22.554 -91.051,-50.371 0,-27.82 40.762,-50.371 91.051,-50.371 50.285,0 91.047,22.551 91.047,50.371 z" /><path
         inkscape:connector-curvature="0"
         id="path1073"
         style="fill:#000000;fill-opacity:1;fill-rule:nonzero;stroke:#000000;stroke-width:0.70866102;stroke-linecap:butt;stroke-linejoin:round;stroke-miterlimit:4.0999999;stroke-dasharray:none;stroke-opacity:1"
         d="m 805.422,621.938 c 0,1.777 -1.442,3.218 -3.223,3.218 -1.777,0 -3.219,-1.441 -3.219,-3.218 0,-1.778 1.442,-3.219 3.219,-3.219 1.781,0 3.223,1.441 3.223,3.219 z" /><path
         inkscape:connector-curvature="0"
         id="path1077"
         style="fill:#ffffff;fill-opacity:1;fill-rule:nonzero;stroke:#000000;stroke-width:0.70866102;stroke-linecap:butt;stroke-linejoin:round;stroke-miterlimit:4.0999999;stroke-dasharray:none;stroke-opacity:1"
         d="m 777.758,724.133 h 21.547 v 10.18 h -21.547 z" /><path
         d="m 782.82,728.188 h -0.593 v -1.055 h 0.593 z m 1.43,0.171 v 1.254 c -0.043,0.016 -0.086,0.02 -0.113,0.02 -0.035,0.008 -0.102,0.012 -0.141,0.012 h -0.398 c -0.106,0 -0.121,-0.024 -0.121,-0.114 v -1.172 z m -3.422,2.887 v -2.887 h 0.734 c -0.007,0.789 -0.089,1.598 -0.726,2.227 l 0.047,0.062 c 1.187,-0.578 1.332,-1.496 1.344,-2.289 h 0.593 v 1.36 c 0,0.414 0.078,0.554 0.555,0.554 h 0.34 c 0.23,0 0.402,-0.011 0.535,-0.039 v 1.012 z m 3.375,-4.289 h -4.484 l 0.054,0.176 h 1.789 v 1.055 h -0.667 l -0.754,-0.29 v 4.059 h 0.125 c 0.347,0 0.562,-0.141 0.562,-0.184 v -0.351 h 3.422 v 0.508 h 0.121 c 0.363,0 0.594,-0.149 0.594,-0.184 v -3.324 c 0.144,-0.024 0.207,-0.074 0.25,-0.125 l -0.649,-0.512 -0.347,0.403 h -0.742 v -1.055 h 1.738 c 0.09,0 0.156,-0.031 0.176,-0.098 -0.289,-0.246 -0.774,-0.601 -0.774,-0.601 z"
         style="fill:#000000;fill-opacity:1;fill-rule:nonzero;stroke:none"
         id="path1079"
         inkscape:connector-curvature="0" /><path
         d="m 787.844,726.422 c 0.254,0.269 0.523,0.683 0.601,1.07 0.688,0.473 1.266,-0.894 -0.558,-1.105 z m 2.347,1.238 h -4.453 l 0.047,0.172 h 1.692 c -0.024,1.645 -0.329,3.121 -1.696,4.164 l 0.039,0.063 c 1.489,-0.637 2.071,-1.723 2.317,-3.028 h 1.519 c -0.066,1.219 -0.191,2.004 -0.379,2.168 -0.058,0.047 -0.113,0.059 -0.226,0.059 -0.133,0 -0.582,-0.028 -0.863,-0.047 l -0.008,0.07 c 0.281,0.063 0.523,0.153 0.636,0.266 0.102,0.09 0.133,0.265 0.125,0.473 0.379,0 0.629,-0.079 0.84,-0.25 0.344,-0.278 0.5,-1.106 0.582,-2.618 0.137,-0.015 0.215,-0.058 0.258,-0.105 l -0.641,-0.555 -0.378,0.367 h -1.43 c 0.051,-0.332 0.078,-0.671 0.105,-1.027 h 2.891 c 0.082,0 0.148,-0.027 0.168,-0.094 -0.277,-0.246 -0.738,-0.601 -0.738,-0.601 z"
         style="fill:#000000;fill-opacity:1;fill-rule:nonzero;stroke:none"
         id="path1081"
         inkscape:connector-curvature="0" /><path
         d="m 792.727,730.496 c -0.047,0.414 -0.395,0.734 -0.696,0.84 -0.183,0.09 -0.324,0.254 -0.258,0.469 0.079,0.226 0.368,0.289 0.594,0.168 0.348,-0.168 0.668,-0.684 0.438,-1.469 z m 0.043,-0.851 v -1.223 h 0.64 v 1.223 z m 0.64,-2.567 v 1.168 h -0.64 v -1.168 z m 0.11,3.203 c 0.222,0 0.527,-0.133 0.535,-0.179 v -2.911 c 0.125,-0.023 0.211,-0.078 0.246,-0.125 l -0.637,-0.5 -0.312,0.344 h -0.559 l -0.66,-0.277 v 3.906 h 0.097 c 0.282,0 0.54,-0.148 0.54,-0.223 v -0.504 h 0.64 v 0.469 z m -0.09,0.289 c 0.121,0.348 0.215,0.832 0.168,1.254 0.527,0.582 1.277,-0.543 -0.102,-1.285 z m 1.117,0.035 c 0.246,0.325 0.492,0.817 0.539,1.243 0.625,0.496 1.223,-0.797 -0.484,-1.274 z m 1.258,-0.078 c 0.336,0.36 0.722,0.922 0.84,1.414 0.714,0.477 1.226,-0.968 -0.786,-1.457 z m 0.375,-1.781 h -0.946 l -0.629,-0.246 c 0.817,-0.449 1.067,-1.027 1.153,-1.578 h 0.726 c -0.035,0.527 -0.089,0.828 -0.179,0.887 -0.035,0.031 -0.078,0.043 -0.168,0.043 -0.11,0 -0.414,-0.024 -0.602,-0.036 v 0.082 c 0.203,0.043 0.367,0.102 0.445,0.192 0.079,0.086 0.094,0.242 0.094,0.41 0.141,0 0.266,-0.012 0.375,-0.035 z m -0.973,1.152 v -0.98 h 1.031 v 0.98 z m 1.551,-3.457 -0.32,0.313 h -2.2 l 0.055,0.168 h 0.734 c -0.039,0.539 -0.156,1.144 -0.937,1.711 l 0.066,0.078 c 0.145,-0.063 0.278,-0.121 0.395,-0.184 v 1.903 h 0.09 c 0.277,0 0.566,-0.145 0.566,-0.203 v -0.157 h 1.031 v 0.313 h 0.121 c 0.215,0 0.551,-0.121 0.555,-0.16 v -1.203 c 0.117,-0.024 0.195,-0.071 0.231,-0.118 l -0.625,-0.464 c 0.078,-0.024 0.144,-0.051 0.203,-0.094 0.242,-0.164 0.343,-0.551 0.39,-1.328 0.121,-0.012 0.188,-0.047 0.227,-0.094 z"
         style="fill:#000000;fill-opacity:1;fill-rule:nonzero;stroke:none"
         id="path1083"
         inkscape:connector-curvature="0" /><path
         inkscape:connector-curvature="0"
         id="path1087"
         style="fill:#ffffff;fill-opacity:1;fill-rule:nonzero;stroke:#000000;stroke-width:0.70866102;stroke-linecap:butt;stroke-linejoin:round;stroke-miterlimit:4.0999999;stroke-dasharray:none;stroke-opacity:1"
         d="m 774.594,610.309 h 21.547 v 10.184 h -21.547 z" /><path
         d="m 777.914,615.852 c -0.348,0.8 -0.914,1.566 -1.391,2.015 l 0.051,0.063 c 0.723,-0.309 1.422,-0.793 1.965,-1.489 0.145,0.032 0.227,-0.011 0.262,-0.074 z m 2.422,0.117 c 0.41,0.441 0.906,1.097 1.102,1.668 0.765,0.504 1.253,-1.071 -1.047,-1.711 z m 0.57,-2.305 h -2.109 c 0.125,-0.277 0.238,-0.527 0.324,-0.723 0.16,0.028 0.234,-0.035 0.262,-0.105 l -0.922,-0.281 c -0.086,0.257 -0.254,0.672 -0.445,1.109 h -1.403 l 0.047,0.168 h 1.285 c -0.218,0.48 -0.457,0.977 -0.648,1.32 -0.09,0.039 -0.176,0.102 -0.235,0.149 l 0.684,0.433 0.223,-0.23 h 1.187 v 1.844 c 0,0.07 -0.031,0.093 -0.125,0.093 -0.129,0 -0.726,-0.035 -0.726,-0.035 v 0.078 c 0.293,0.055 0.418,0.125 0.507,0.235 0.098,0.101 0.129,0.258 0.145,0.48 0.816,-0.074 0.93,-0.336 0.93,-0.824 v -1.871 h 1.769 c 0.086,0 0.156,-0.027 0.176,-0.094 -0.289,-0.258 -0.762,-0.613 -0.762,-0.613 l -0.422,0.535 h -0.761 v -0.84 c 0.133,-0.019 0.179,-0.062 0.191,-0.144 l -0.922,-0.086 v 1.07 h -1.144 c 0.195,-0.402 0.465,-0.98 0.711,-1.5 h 3.246 c 0.086,0 0.156,-0.031 0.168,-0.098 -0.293,-0.257 -0.789,-0.636 -0.789,-0.636 z"
         style="fill:#000000;fill-opacity:1;fill-rule:nonzero;stroke:none"
         id="path1089"
         inkscape:connector-curvature="0" /><path
         d="m 784.684,612.602 c 0.25,0.269 0.519,0.683 0.597,1.066 0.692,0.477 1.266,-0.895 -0.558,-1.102 z m 2.343,1.234 h -4.453 l 0.051,0.176 h 1.691 c -0.023,1.644 -0.332,3.121 -1.699,4.164 l 0.043,0.058 c 1.488,-0.636 2.07,-1.722 2.317,-3.023 h 1.515 c -0.062,1.219 -0.191,2.004 -0.375,2.164 -0.062,0.051 -0.117,0.063 -0.23,0.063 -0.133,0 -0.582,-0.032 -0.864,-0.047 l -0.003,0.07 c 0.281,0.059 0.519,0.148 0.632,0.266 0.102,0.089 0.133,0.261 0.129,0.472 0.375,0 0.629,-0.078 0.84,-0.254 0.34,-0.273 0.496,-1.101 0.582,-2.613 0.137,-0.02 0.215,-0.062 0.258,-0.109 l -0.645,-0.551 -0.375,0.363 h -1.429 c 0.047,-0.328 0.078,-0.672 0.101,-1.023 h 2.891 c 0.086,0 0.152,-0.032 0.168,-0.098 -0.274,-0.246 -0.734,-0.598 -0.734,-0.598 z"
         style="fill:#000000;fill-opacity:1;fill-rule:nonzero;stroke:none"
         id="path1091"
         inkscape:connector-curvature="0" /><path
         d="m 789.566,616.676 c -0.046,0.414 -0.398,0.73 -0.695,0.84 -0.187,0.089 -0.324,0.25 -0.258,0.468 0.078,0.227 0.364,0.286 0.594,0.168 0.348,-0.168 0.664,-0.683 0.438,-1.472 z m 0.043,-0.852 v -1.226 h 0.641 v 1.226 z m 0.641,-2.57 v 1.172 h -0.641 v -1.172 z m 0.109,3.203 c 0.219,0 0.528,-0.129 0.532,-0.18 v -2.91 c 0.129,-0.023 0.211,-0.078 0.246,-0.125 l -0.637,-0.496 -0.309,0.34 h -0.558 l -0.66,-0.274 v 3.907 h 0.093 c 0.286,0 0.543,-0.153 0.543,-0.223 v -0.504 h 0.641 v 0.465 z m -0.089,0.289 c 0.117,0.348 0.214,0.836 0.168,1.254 0.527,0.582 1.277,-0.539 -0.106,-1.281 z m 1.113,0.035 c 0.246,0.324 0.492,0.817 0.539,1.242 0.625,0.5 1.226,-0.796 -0.484,-1.269 z m 1.262,-0.078 c 0.335,0.363 0.718,0.926 0.839,1.418 0.715,0.473 1.223,-0.973 -0.785,-1.457 z m 0.371,-1.781 h -0.942 l -0.629,-0.246 c 0.817,-0.449 1.067,-1.024 1.153,-1.578 h 0.722 c -0.035,0.527 -0.09,0.828 -0.179,0.89 -0.036,0.028 -0.079,0.039 -0.168,0.039 -0.106,0 -0.414,-0.023 -0.598,-0.035 v 0.086 c 0.203,0.039 0.363,0.102 0.441,0.192 0.079,0.082 0.098,0.238 0.098,0.406 0.137,0 0.266,-0.012 0.371,-0.035 z m -0.973,1.152 v -0.976 h 1.031 v 0.976 z m 1.555,-3.457 -0.325,0.313 h -2.195 l 0.055,0.168 h 0.73 c -0.035,0.543 -0.156,1.148 -0.933,1.711 l 0.062,0.078 c 0.145,-0.059 0.278,-0.121 0.399,-0.18 v 1.902 h 0.089 c 0.274,0 0.563,-0.144 0.563,-0.203 v -0.156 h 1.031 v 0.312 h 0.121 c 0.215,0 0.551,-0.121 0.559,-0.164 v -1.199 c 0.113,-0.023 0.191,-0.074 0.226,-0.121 l -0.621,-0.461 c 0.079,-0.023 0.141,-0.055 0.203,-0.097 0.239,-0.161 0.34,-0.551 0.391,-1.325 0.117,-0.011 0.184,-0.047 0.227,-0.097 z"
         style="fill:#000000;fill-opacity:1;fill-rule:nonzero;stroke:none"
         id="path1093"
         inkscape:connector-curvature="0" /><path
         inkscape:connector-curvature="0"
         id="path1097"
         style="fill:#000000;fill-opacity:1;fill-rule:nonzero;stroke:#000000;stroke-width:0.70866102;stroke-linecap:butt;stroke-linejoin:round;stroke-miterlimit:4.0999999;stroke-dasharray:none;stroke-opacity:1"
         d="m 805.051,718.762 c 0,1.777 -1.442,3.218 -3.223,3.218 -1.777,0 -3.219,-1.441 -3.219,-3.218 0,-1.778 1.442,-3.219 3.219,-3.219 1.781,0 3.223,1.441 3.223,3.219 z" /><path
         inkscape:connector-curvature="0"
         id="path1101"
         style="fill:#000000;fill-opacity:1;fill-rule:nonzero;stroke:#000000;stroke-width:0.70866102;stroke-linecap:butt;stroke-linejoin:round;stroke-miterlimit:4.0999999;stroke-dasharray:none;stroke-opacity:1"
         d="m 922.859,669.746 c 0,1.777 -1.441,3.219 -3.218,3.219 -1.782,0 -3.223,-1.442 -3.223,-3.219 0,-1.781 1.441,-3.223 3.223,-3.223 1.777,0 3.218,1.442 3.218,3.223 z" /><path
         inkscape:connector-curvature="0"
         id="path1105"
         style="fill:#ffffff;fill-opacity:1;fill-rule:nonzero;stroke:#000000;stroke-width:0.70866102;stroke-linecap:butt;stroke-linejoin:round;stroke-miterlimit:4.0999999;stroke-dasharray:none;stroke-opacity:1"
         d="m 735.32,673.559 v 9.703 h -9.707 v -9.703 z" /><path
         d="m 727.855,675.941 c 0.266,0.282 0.512,0.711 0.559,1.098 0.66,0.496 1.266,-0.836 -0.508,-1.137 z m 1.512,0.879 c -1.09,2.043 -1.09,2.043 -1.222,2.25 -0.071,0.114 -0.102,0.114 -0.192,0.114 h -0.281 v 0.117 c 0.133,0.011 0.226,0.039 0.305,0.094 0.144,0.089 0.175,0.601 0.066,1.214 0.043,0.207 0.18,0.297 0.312,0.297 0.293,0 0.493,-0.183 0.504,-0.48 0.016,-0.496 -0.222,-0.699 -0.23,-1.008 -0.004,-0.141 0.043,-0.348 0.094,-0.52 0.082,-0.277 0.507,-1.433 0.734,-2.054 z m 2.27,1.992 v -1.8 h 0.718 v 1.8 z m -1.387,0 v -1.8 h 0.703 v 1.8 z m 2.414,-2.339 -0.332,0.371 h -0.695 v -0.981 c 0.168,-0.027 0.211,-0.086 0.222,-0.168 l -0.906,-0.09 v 1.239 h -0.637 l -0.714,-0.274 v 3.035 h 0.113 c 0.332,0 0.535,-0.121 0.535,-0.167 v -0.45 h 0.703 v 2.239 h 0.133 c 0.258,0 0.551,-0.176 0.551,-0.247 v -1.992 h 0.718 v 0.539 h 0.122 c 0.335,0 0.558,-0.125 0.558,-0.16 v -2.305 c 0.137,-0.023 0.199,-0.062 0.238,-0.113 z"
         style="fill:#000000;fill-opacity:1;fill-rule:nonzero;stroke:none"
         id="path1107"
         inkscape:connector-curvature="0" /><path
         inkscape:connector-curvature="0"
         id="path1111"
         style="fill:#ffffff;fill-opacity:1;fill-rule:nonzero;stroke:#000000;stroke-width:0.70866102;stroke-linecap:butt;stroke-linejoin:round;stroke-miterlimit:4.0999999;stroke-dasharray:none;stroke-opacity:1"
         d="m 915.012,657.332 v 9.703 h -9.703 v -9.703 z" /><path
         d="m 909.086,664.32 v -1.406 h 2.184 v 1.406 z m 2.125,-1.578 h -2.074 l -0.789,-0.312 v 2.562 h 0.109 c 0.305,0 0.629,-0.164 0.629,-0.23 v -0.27 h 2.184 v 0.438 h 0.128 c 0.247,0 0.618,-0.125 0.622,-0.168 v -1.723 c 0.128,-0.023 0.21,-0.082 0.253,-0.129 l -0.718,-0.555 z m -0.719,-1.058 h -1.722 l 0.046,0.175 h 2.618 c 0.089,0 0.148,-0.031 0.168,-0.097 -0.27,-0.246 -0.715,-0.594 -0.715,-0.594 z m -0.781,-2.344 c -0.25,0.863 -1.344,2.086 -2.375,2.719 l 0.035,0.07 c 1.207,-0.461 2.438,-1.41 3.008,-2.32 0.363,0.941 1.164,1.636 2.074,2.086 0.055,-0.266 0.246,-0.563 0.551,-0.649 l 0.008,-0.094 c -0.926,-0.254 -2.004,-0.679 -2.539,-1.418 0.191,-0.019 0.269,-0.054 0.293,-0.132 z"
         style="fill:#000000;fill-opacity:1;fill-rule:nonzero;stroke:none"
         id="path1113"
         inkscape:connector-curvature="0" /><path
         inkscape:connector-curvature="0"
         id="path1117"
         style="fill:#000000;fill-opacity:1;fill-rule:nonzero;stroke:#000000;stroke-width:0.70866102;stroke-linecap:butt;stroke-linejoin:round;stroke-miterlimit:4.0999999;stroke-dasharray:none;stroke-opacity:1"
         d="m 740.652,669.379 c 0,1.781 -1.441,3.223 -3.218,3.223 -1.778,0 -3.223,-1.442 -3.223,-3.223 0,-1.777 1.445,-3.219 3.223,-3.219 1.777,0 3.218,1.442 3.218,3.219 z" /><path
         d="m 744.039,673.895 c -0.062,0.527 -0.152,1.031 -0.301,1.511 -0.07,-0.242 -0.343,-0.504 -0.906,-0.656 0.148,-0.258 0.289,-0.547 0.414,-0.855 z m -0.055,-0.168 h -0.679 c 0.086,-0.235 0.164,-0.477 0.23,-0.739 0.145,-0.008 0.211,-0.062 0.235,-0.14 l -0.985,-0.219 c -0.144,1.269 -0.578,2.488 -1.109,3.297 l 0.07,0.051 c 0.371,-0.286 0.695,-0.633 0.973,-1.051 0.187,0.262 0.336,0.594 0.367,0.898 0.18,0.145 0.352,0.153 0.484,0.078 -0.371,0.938 -0.965,1.731 -1.922,2.286 l 0.055,0.074 c 2.211,-0.805 2.805,-2.438 3.067,-4.231 0.152,-0.019 0.21,-0.043 0.253,-0.109 l -0.66,-0.598 z m 1.934,-0.805 c 0.16,-0.024 0.203,-0.086 0.215,-0.168 l -0.938,-0.09 v 5.598 h 0.145 c 0.269,0 0.578,-0.145 0.578,-0.211 v -3.328 c 0.324,0.363 0.664,0.839 0.797,1.269 0.742,0.481 1.242,-0.945 -0.797,-1.457 z"
         style="fill:#000000;fill-opacity:1;fill-rule:nonzero;stroke:none"
         id="path1119"
         inkscape:connector-curvature="0" /><path
         d="m 752.953,673.402 c 0.086,0 0.152,-0.031 0.168,-0.097 -0.246,-0.223 -0.652,-0.551 -0.652,-0.551 l -0.367,0.48 h -1.973 l 0.047,0.168 z m -3.894,-0.761 c -0.25,0.492 -0.801,1.234 -1.317,1.707 l 0.051,0.066 c 0.715,-0.316 1.41,-0.809 1.844,-1.211 0.133,0.024 0.191,-0.008 0.226,-0.066 z m 0.066,1.214 c -0.285,0.633 -0.91,1.622 -1.527,2.262 l 0.05,0.067 c 0.321,-0.18 0.625,-0.395 0.914,-0.622 v 2.7 h 0.133 c 0.27,0 0.563,-0.141 0.575,-0.188 v -2.875 c 0.109,-0.023 0.164,-0.062 0.187,-0.113 l -0.254,-0.094 c 0.207,-0.199 0.391,-0.398 0.543,-0.578 0.141,0.02 0.203,-0.016 0.231,-0.07 z m 3.152,0.758 h -2.484 l 0.047,0.172 h 1.734 v 2.535 c 0,0.078 -0.043,0.118 -0.148,0.118 -0.176,0 -1.063,-0.051 -1.063,-0.051 v 0.078 c 0.407,0.058 0.582,0.14 0.707,0.246 0.125,0.101 0.176,0.273 0.192,0.504 0.894,-0.063 1.031,-0.399 1.031,-0.879 v -2.551 h 0.871 c 0.086,0 0.148,-0.027 0.168,-0.094 -0.25,-0.234 -0.676,-0.57 -0.676,-0.57 z"
         style="fill:#000000;fill-opacity:1;fill-rule:nonzero;stroke:none"
         id="path1121"
         inkscape:connector-curvature="0" /><path
         d="m 757.699,673.203 v 0.664 h -2.32 v -0.664 z m -2.32,1.524 v -0.692 h 2.32 v 0.692 z m 2.855,3.144 h -1.277 v -0.887 h 1.727 c 0.078,0 0.144,-0.023 0.164,-0.089 -0.243,-0.235 -0.657,-0.571 -0.657,-0.571 l -0.363,0.496 h -0.871 v -0.754 h 1.773 c 0.086,0 0.145,-0.031 0.165,-0.097 -0.239,-0.235 -0.661,-0.571 -0.661,-0.571 l -0.379,0.493 h -0.898 v -0.586 c 0.16,-0.028 0.203,-0.086 0.215,-0.176 l -0.965,-0.082 v 0.844 h -0.871 c 0.098,-0.133 0.191,-0.278 0.277,-0.426 0.133,0.019 0.203,-0.02 0.235,-0.098 l -0.621,-0.25 c 0.093,-0.043 0.152,-0.086 0.152,-0.113 v -0.102 h 2.32 v 0.25 h 0.133 c 0.242,0 0.613,-0.125 0.617,-0.172 v -1.656 c 0.129,-0.023 0.207,-0.078 0.242,-0.129 l -0.711,-0.539 -0.339,0.371 h -2.219 l -0.789,-0.304 v 2.507 h 0.109 c 0.055,0 0.113,-0.003 0.168,-0.011 -0.238,0.707 -0.629,1.351 -1.019,1.758 l 0.066,0.054 c 0.457,-0.211 0.883,-0.527 1.246,-0.965 h 1.004 v 0.754 h -1.625 l 0.047,0.164 h 1.578 v 0.887 h -2.492 l 0.051,0.168 h 5.355 c 0.086,0 0.152,-0.031 0.168,-0.098 -0.25,-0.238 -0.676,-0.586 -0.676,-0.586 z"
         style="fill:#000000;fill-opacity:1;fill-rule:nonzero;stroke:none"
         id="path1123"
         inkscape:connector-curvature="0" /><path
         inkscape:connector-curvature="0"
         id="path1127"
         style="fill:none;stroke:#000000;stroke-width:0.70866102;stroke-linecap:butt;stroke-linejoin:round;stroke-miterlimit:4.0999999;stroke-dasharray:none;stroke-opacity:1"
         d="m 848.168,709.195 c -24.098,-1.343 -43.465,-15.843 -45.941,-34.39 -2.477,-18.547 12.656,-35.789 35.89,-40.899" /></g></g></svg>